<?xml version="1.0" encoding="UTF-8"?>
<svg fill="#929292" width="100pt" height="100pt" version="1.1" viewBox="0 0 100 100" xmlns="http://www.w3.org/2000/svg">
 <g>
  <path d="m71.363 44.066c0 11.801-9.5664 21.363-21.367 21.363-11.797 0-21.363-9.5625-21.363-21.363 0-11.797 9.5664-21.363 21.363-21.363 11.805 0 21.367 9.5664 21.367 21.363z"/>
  <path d="m84.254 84.34c-8.7734-8.7539-20.883-14.168-34.254-14.168s-25.48 5.4141-34.254 14.168c8.7734 8.75 20.883 14.16 34.254 14.16s25.48-5.4102 34.254-14.16z"/>
  <path d="m50 1.5c-26.785 0-48.5 21.719-48.5 48.5 0 26.789 21.715 48.5 48.5 48.5s48.5-21.711 48.5-48.5c0-26.781-21.715-48.5-48.5-48.5zm0 91.562c-23.781 0-43.062-19.277-43.062-43.062 0-23.781 19.281-43.062 43.062-43.062 23.785 0 43.062 19.281 43.062 43.066 0 23.781-19.277 43.059-43.062 43.059z"/>
 </g>
</svg>
