<?xml version="1.0" encoding="UTF-8" standalone="no"?>
<svg width="300px" height="300px" viewBox="0 0 300 300" version="1.1" xmlns="http://www.w3.org/2000/svg" xmlns:xlink="http://www.w3.org/1999/xlink">
    <!-- Generator: Sketch 43.1 (39012) - http://www.bohemiancoding.com/sketch -->
    <title>Step 1 image</title>
    <desc>Created with Sketch.</desc>
    <defs>
        <rect id="path-1" x="0" y="0" width="300" height="300" rx="10"></rect>
        <rect id="path-3" x="0" y="0" width="300" height="300" rx="10"></rect>
    </defs>
    <g id="Whole-Site" stroke="none" stroke-width="1" fill="none" fill-rule="evenodd">
        <g id="Women-in-IT-1" transform="translate(-251.000000, -894.000000)">
            <g id="How-it-works" transform="translate(251.000000, 831.000000)">
                <g id="Group-6" transform="translate(0.000000, 63.000000)">
                    <g id="Step-1-image">
                        <mask id="mask-2" fill="white">
                            <use xlink:href="#path-1"></use>
                        </mask>
                        <use id="Mask" fill="#C9CAC8" xlink:href="#path-1"></use>
                        <mask id="mask-4" fill="white">
                            <use xlink:href="#path-3"></use>
                        </mask>
                        <use id="Mask-Copy-2" fill-opacity="0.75" fill="#3023AE" xlink:href="#path-3"></use>
                        <g id="Group-2" opacity="0.203999534" style="mix-blend-mode: overlay;" mask="url(#mask-4)" fill-rule="nonzero" fill="#000000">
                            <g transform="translate(-310.000000, -739.000000)">
                                <path d="M466.451373,1038.73147 L462.205313,1038.73147 L462.205313,1009.96751 C462.205313,1009.62455 461.928801,1009.34539 461.585818,1009.34539 L413.871327,1009.34539 C413.528343,1009.34539 413.251832,1009.62455 413.251832,1009.96751 L413.251832,1038.73147 L409.005772,1038.73147 C408.662789,1038.73147 408.386277,1039.00797 408.386277,1039.35094 L408.386277,1040.01559 C408.386277,1040.35856 408.66545,1040.63506 409.005772,1040.63506 L466.453469,1040.63506 C466.796453,1040.63506 467.072964,1040.35856 467.072964,1040.01559 L467.072964,1039.35359 C467.072964,1039.00797 466.793791,1038.73147 466.450815,1038.73147 L466.451373,1038.73147 Z M437.728885,1010.01311 C437.835236,1010.01311 437.920317,1010.10085 437.920317,1010.2072 C437.920317,1010.31354 437.835236,1010.40128 437.728885,1010.40128 C437.622535,1010.40128 437.534793,1010.31354 437.534793,1010.2072 C437.537452,1010.10085 437.622535,1010.01311 437.728885,1010.01311 Z M440.018095,1039.48423 L435.437022,1039.48423 C435.274838,1039.48423 435.141901,1039.3513 435.141901,1039.18912 C435.141901,1039.02429 435.274838,1038.89136 435.437022,1038.89136 L440.018095,1038.89136 C440.180279,1038.89136 440.313215,1039.02163 440.313215,1039.18912 C440.315874,1039.3513 440.182933,1039.48423 440.018095,1039.48423 Z M460.30196,1036.37894 L415.156219,1036.37894 L415.156219,1011.0684 L460.30196,1011.0684 L460.30196,1036.37894 Z" id="Shape-Copy-33"></path>
                                <path d="M466.451373,820.255498 L462.205313,820.255498 L462.205313,791.491537 C462.205313,791.14857 461.928801,790.869418 461.585818,790.869418 L413.871327,790.869418 C413.528343,790.869418 413.251832,791.148577 413.251832,791.491537 L413.251832,820.255498 L409.005772,820.255498 C408.662789,820.255498 408.386277,820.531996 408.386277,820.874963 L408.386277,821.53962 C408.386277,821.882586 408.66545,822.159084 409.005772,822.159084 L466.453469,822.159084 C466.796453,822.159084 467.072964,821.882586 467.072964,821.53962 L467.072964,820.877617 C467.072964,820.531996 466.793791,820.255498 466.450815,820.255498 L466.451373,820.255498 Z M437.728885,791.537138 C437.835236,791.537138 437.920317,791.624875 437.920317,791.73122 C437.920317,791.837566 437.835236,791.925303 437.728885,791.925303 C437.622535,791.925303 437.534793,791.837566 437.534793,791.73122 C437.537452,791.624875 437.622535,791.537138 437.728885,791.537138 Z M440.018095,821.008253 L435.437022,821.008253 C435.274838,821.008253 435.141901,820.875323 435.141901,820.713147 C435.141901,820.54831 435.274838,820.41538 435.437022,820.41538 L440.018095,820.41538 C440.180279,820.41538 440.313215,820.545656 440.313215,820.713147 C440.315874,820.875323 440.182933,821.008253 440.018095,821.008253 Z M460.30196,817.902968 L415.156219,817.902968 L415.156219,792.592424 L460.30196,792.592424 L460.30196,817.902968 Z" id="Shape-Copy-32"></path>
                                <path d="M585.889852,960.277731 L583.863941,962.836391 L594.065452,970.950357 L583.863941,979.064323 L585.889852,981.622983 L599.311749,970.949921 L585.889852,960.277731 Z M562.699268,960.277731 L549.279543,970.950793 L562.699268,981.625488 L564.725179,979.066828 L554.523668,970.950684 L564.725179,962.836717 L562.699268,960.277731 Z M567.404453,984.481874 L570.448615,985.647406 L581.186675,957.423305 L578.142514,956.257773 L567.404453,984.481874 Z" id="Shape-Copy-29"></path>
                                <path d="M585.889852,741.801756 L583.863941,744.360416 L594.065452,752.474382 L583.863941,760.588348 L585.889852,763.147008 L599.311749,752.473946 L585.889852,741.801756 Z M562.699268,741.801756 L549.279543,752.474817 L562.699268,763.149513 L564.725179,760.590853 L554.523668,752.474709 L564.725179,744.360742 L562.699268,741.801756 Z M567.404453,766.005899 L570.448615,767.171431 L581.186675,738.94733 L578.142514,737.781798 L567.404453,766.005899 Z" id="Shape-Copy-28"></path>
                                <path d="M507.419949,867.778406 C495.590275,867.778406 485.97967,877.388541 485.97967,889.217637 C485.97967,901.046733 495.590275,910.656868 507.419949,910.656868 C519.249623,910.656868 528.860229,901.046733 528.860229,889.217637 C528.860229,877.388541 519.249623,867.778406 507.419949,867.778406 Z M506.445391,869.818787 L506.445391,879.959544 L498.846761,879.959544 C499.328329,878.181842 499.941239,876.57541 500.658854,875.193603 C502.252013,872.127305 504.277291,870.250398 506.445294,869.81869 L506.445391,869.818787 Z M508.394507,869.818787 C510.562509,870.250846 512.587787,872.127549 514.180946,875.1937 C514.898562,876.575507 515.511462,878.181939 515.99304,879.959641 L508.39441,879.959641 L508.394507,869.818787 Z M501.45078,870.656282 C500.499076,871.665046 499.648238,872.898435 498.92302,874.295494 C498.06078,875.955182 497.350766,877.866149 496.821629,879.959836 L490.258467,879.959836 C492.626351,875.578339 496.631103,872.201758 501.45078,870.656184 L501.45078,870.656282 Z M513.389118,870.656282 C518.2086,872.201807 522.213255,875.578534 524.581431,879.959933 L518.018269,879.959933 C517.489133,877.866246 516.779118,875.95528 515.916878,874.295591 C515.191661,872.898533 514.340823,871.665192 513.389118,870.656379 L513.389118,870.656282 Z M489.344819,881.908954 L496.39526,881.908954 C496.016478,883.901731 495.791862,886.027772 495.740454,888.243273 L487.959095,888.243273 C488.069493,886.012569 488.549141,883.880828 489.344819,881.908954 Z M498.389693,881.908954 L506.444904,881.908954 L506.444904,888.243273 L497.688986,888.243273 C497.744185,886.008769 497.98973,883.882728 498.38945,881.908954 L498.389693,881.908954 Z M508.39402,881.908954 L516.449231,881.908954 C516.84895,883.882728 517.094485,886.008769 517.149694,888.243273 L508.393776,888.243273 L508.39402,881.908954 Z M518.444151,881.908954 L525.494592,881.908954 C526.290221,883.880828 526.769899,886.012569 526.880316,888.243273 L519.098957,888.243273 C519.047563,886.027772 518.822957,883.901731 518.444151,881.908954 Z M487.958997,890.192294 L495.740357,890.192294 C495.79175,892.407795 496.016357,894.535736 496.395163,896.526612 L489.344722,896.526612 C488.549092,894.554739 488.069415,892.422997 487.958997,890.192294 L487.958997,890.192294 Z M497.689473,890.192294 L506.445391,890.192294 L506.445391,896.526612 L498.390181,896.526612 C497.988555,894.554739 497.744926,892.428698 497.689717,890.192294 L497.689473,890.192294 Z M508.394507,890.192294 L517.150425,890.192294 C517.095226,892.428698 516.851587,894.554739 516.449961,896.526612 L508.394751,896.526612 L508.394507,890.192294 Z M519.099541,890.192294 L526.880901,890.192294 C526.770503,892.422997 526.290855,894.554739 525.495177,896.526612 L518.444736,896.526612 C518.823517,894.535736 519.048134,892.407795 519.099541,890.192294 L519.099541,890.192294 Z M490.258467,898.475633 L496.836735,898.475633 C497.365871,900.563619 498.060634,902.466936 498.922874,904.124871 C499.651892,905.52763 500.510332,906.764819 501.465886,907.779285 C496.640702,906.23566 492.630055,902.86093 490.258467,898.475633 Z M498.846761,898.475633 L506.445391,898.475633 L506.445391,908.616389 C504.277389,908.18243 502.252111,906.292426 500.658952,903.226372 C499.941336,901.846465 499.328436,900.245734 498.846858,898.475633 L498.846761,898.475633 Z M508.394507,898.475633 L515.993137,898.475633 C515.511569,900.245734 514.89866,901.846465 514.181044,903.226372 C512.587885,906.292669 510.562607,908.182732 508.394605,908.616389 L508.394507,898.475633 Z M518.003164,898.475633 L524.581431,898.475633 C522.209746,902.86093 518.19905,906.23566 513.374012,907.779285 C514.329518,906.764819 515.188006,905.52763 515.917024,904.124871 C516.779265,902.467082 517.474027,900.563717 518.003164,898.475633 Z" id="Shape-Copy-25"></path>
                                <path d="M317.354498,859.218013 C317.950062,843.989353 298.424433,841.785536 294.007736,853.297246 C289.323,852.257749 285.425498,855.416191 284.819044,859.287163 C273.452974,860.579234 275.074948,876.913614 286.044748,876.913614 L317.354362,876.913614 C329.068923,876.913614 329.071645,859.217741 317.354362,859.217741 L317.354498,859.218013 Z M317.354498,874.191444 L286.044884,874.191444 C278.571415,874.191444 276.672419,861.940455 287.406171,861.940455 C287.065849,857.006029 291.404954,854.538815 295.573897,856.971454 C299.865152,844.103831 314.631923,848.413457 314.631923,858.537402 L314.631923,861.940455 L317.354498,861.940455 C325.469134,861.940455 325.471856,874.191444 317.354498,874.191444 Z" id="Shape-Copy-22"></path>
                                <path d="M381.422049,944.863616 C381.487735,944.536396 381.384513,944.196638 381.148354,943.960244 L363.131312,925.924065 C362.845105,925.637555 362.416556,925.551442 362.039639,925.706441 C361.66585,925.86144 361.421855,926.226243 361.421855,926.631737 L361.421855,952.139302 C361.421855,952.47435 361.589201,952.785919 361.866035,952.972213 C362.144423,953.158523 362.496311,953.192968 362.806004,953.064586 L369.039901,950.479721 L373.428452,961.083792 C373.587979,961.470504 373.960195,961.702232 374.354327,961.702232 C374.481011,961.702232 374.612384,961.677182 374.737502,961.625515 L378.43632,960.09276 C378.681865,959.990992 378.875816,959.796854 378.977472,959.551033 C379.079132,959.305228 379.079132,959.029668 378.977472,958.783855 L374.588921,948.178181 L380.822818,945.593316 C381.132487,945.464934 381.356122,945.192512 381.421824,944.863732 L381.422049,944.863616 Z M372.896785,946.711082 C372.651241,946.81285 372.457289,947.006987 372.355633,947.252808 C372.253977,947.49863 372.253973,947.774174 372.355633,948.019987 L376.744184,958.624058 L374.895555,959.391237 L370.507004,948.787166 C370.347478,948.400455 369.975261,948.168726 369.581129,948.168726 C369.454445,948.168726 369.323073,948.193776 369.197954,948.245444 L363.423693,950.639325 L363.423693,929.050821 L378.672516,944.315841 L372.896785,946.711082 Z" id="Shape-Copy-19"></path>
                                <path d="M381.422049,726.387641 C381.487735,726.060421 381.384513,725.720663 381.148354,725.484269 L363.131312,707.44809 C362.845105,707.161579 362.416556,707.075467 362.039639,707.230466 C361.66585,707.385465 361.421855,707.750268 361.421855,708.155762 L361.421855,733.663327 C361.421855,733.998375 361.589201,734.309944 361.866035,734.496238 C362.144423,734.682548 362.496311,734.716993 362.806004,734.588611 L369.039901,732.003746 L373.428452,742.607817 C373.587979,742.994529 373.960195,743.226257 374.354327,743.226257 C374.481011,743.226257 374.612384,743.201207 374.737502,743.149539 L378.43632,741.616785 C378.681865,741.515017 378.875816,741.320879 378.977472,741.075058 C379.079132,740.829253 379.079132,740.553692 378.977472,740.307879 L374.588921,729.702206 L380.822818,727.117341 C381.132487,726.988959 381.356122,726.716537 381.421824,726.387757 L381.422049,726.387641 Z M372.896785,728.235107 C372.651241,728.336875 372.457289,728.531012 372.355633,728.776833 C372.253977,729.022654 372.253973,729.298199 372.355633,729.544012 L376.744184,740.148083 L374.895555,740.915262 L370.507004,730.311191 C370.347478,729.924479 369.975261,729.692751 369.581129,729.692751 C369.454445,729.692751 369.323073,729.717801 369.197954,729.769468 L363.423693,732.16335 L363.423693,710.574846 L378.672516,725.839866 L372.896785,728.235107 Z" id="Shape-Copy-18"></path>
                            </g>
                        </g>
                    </g>
                </g>
            </g>
        </g>
    </g>
</svg>