<?xml version="1.0" encoding="UTF-8" standalone="no"?>
<svg width="1443px" height="450px" viewBox="0 0 1443 450" version="1.1" xmlns="http://www.w3.org/2000/svg" xmlns:xlink="http://www.w3.org/1999/xlink">
    <!-- Generator: Sketch 43.1 (39012) - http://www.bohemiancoding.com/sketch -->
    <title>Hero section</title>
    <desc>Created with Sketch.</desc>
    <defs>
        <rect id="path-1" x="0" y="0" width="1600" height="450"></rect>
        <linearGradient x1="50%" y1="0%" x2="50%" y2="100%" id="linearGradient-3">
            <stop stop-color="#1C57A5" offset="0%"></stop>
            <stop stop-color="#7D23AE" stop-opacity="0.5" offset="100%"></stop>
        </linearGradient>
    </defs>
    <g id="Whole-Site" stroke="none" stroke-width="1" fill="none" fill-rule="evenodd">
        <g id="Women-in-IT-1">
            <g id="Hero-section" transform="translate(-79.000000, 0.000000)">
                <mask id="mask-2" fill="white">
                    <use xlink:href="#path-1"></use>
                </mask>
                <use id="Mask" fill="#C9CAC8" xlink:href="#path-1"></use>
                <rect id="overlay" fill="url(#linearGradient-3)" mask="url(#mask-2)" x="-35" y="0" width="1700" height="750"></rect>
                <g id="Group-2" opacity="0.203999534" style="mix-blend-mode: overlay;" mask="url(#mask-2)">
                    <g transform="translate(-40.000000, -305.000000)">
                        <path d="M466.451373,602.460134 L462.205313,602.460134 L462.205313,573.696172 C462.205313,573.353206 461.928801,573.074053 461.585818,573.074053 L413.871327,573.074053 C413.528343,573.074053 413.251832,573.353212 413.251832,573.696172 L413.251832,602.460134 L409.005772,602.460134 C408.662789,602.460134 408.386277,602.736632 408.386277,603.079598 L408.386277,603.744255 C408.386277,604.087221 408.66545,604.363719 409.005772,604.363719 L466.453469,604.363719 C466.796453,604.363719 467.072964,604.087221 467.072964,603.744255 L467.072964,603.082252 C467.072964,602.736632 466.793791,602.460134 466.450815,602.460134 L466.451373,602.460134 Z M437.728885,573.741773 C437.835236,573.741773 437.920317,573.82951 437.920317,573.935856 C437.920317,574.042201 437.835236,574.129939 437.728885,574.129939 C437.622535,574.129939 437.534793,574.042201 437.534793,573.935856 C437.537452,573.82951 437.622535,573.741773 437.728885,573.741773 Z M440.018095,603.212889 L435.437022,603.212889 C435.274838,603.212889 435.141901,603.079959 435.141901,602.917783 C435.141901,602.752946 435.274838,602.620016 435.437022,602.620016 L440.018095,602.620016 C440.180279,602.620016 440.313215,602.750291 440.313215,602.917783 C440.315874,603.079959 440.182933,603.212889 440.018095,603.212889 Z M460.30196,600.107603 L415.156219,600.107603 L415.156219,574.797059 L460.30196,574.797059 L460.30196,600.107603 Z" id="Shape-Copy" fill="#000000" fill-rule="nonzero"></path>
                        <path d="M466.451373,383.984158 L462.205313,383.984158 L462.205313,355.220197 C462.205313,354.87723 461.928801,354.598078 461.585818,354.598078 L413.871327,354.598078 C413.528343,354.598078 413.251832,354.877237 413.251832,355.220197 L413.251832,383.984158 L409.005772,383.984158 C408.662789,383.984158 408.386277,384.260656 408.386277,384.603623 L408.386277,385.26828 C408.386277,385.611246 408.66545,385.887744 409.005772,385.887744 L466.453469,385.887744 C466.796453,385.887744 467.072964,385.611246 467.072964,385.26828 L467.072964,384.606277 C467.072964,384.260656 466.793791,383.984158 466.450815,383.984158 L466.451373,383.984158 Z M437.728885,355.265798 C437.835236,355.265798 437.920317,355.353535 437.920317,355.459881 C437.920317,355.566226 437.835236,355.653964 437.728885,355.653964 C437.622535,355.653964 437.534793,355.566226 437.534793,355.459881 C437.537452,355.353535 437.622535,355.265798 437.728885,355.265798 Z M440.018095,384.736914 L435.437022,384.736914 C435.274838,384.736914 435.141901,384.603984 435.141901,384.441808 C435.141901,384.276971 435.274838,384.144041 435.437022,384.144041 L440.018095,384.144041 C440.180279,384.144041 440.313215,384.274316 440.313215,384.441808 C440.315874,384.603984 440.182933,384.736914 440.018095,384.736914 Z M460.30196,381.631628 L415.156219,381.631628 L415.156219,356.321084 L460.30196,356.321084 L460.30196,381.631628 Z" id="Shape-Copy-7" fill="#000000" fill-rule="nonzero"></path>
                        <path d="M177.503575,687.352914 L175.477664,689.911574 L185.679175,698.025541 L175.477664,706.139507 L177.503575,708.698167 L190.925472,698.025105 L177.503575,687.352914 Z M154.312991,687.352914 L140.893266,698.025976 L154.312991,708.700672 L156.338902,706.142012 L146.137391,698.025867 L156.338902,689.911901 L154.312991,687.352914 Z M159.018176,711.557058 L162.062338,712.72259 L172.800398,684.498488 L169.756237,683.332956 L159.018176,711.557058 Z" id="Shape" fill="#000000" fill-rule="nonzero"></path>
                        <path d="M177.503575,468.876939 L175.477664,471.435599 L185.679175,479.549566 L175.477664,487.663532 L177.503575,490.222192 L190.925472,479.54913 L177.503575,468.876939 Z M154.312991,468.876939 L140.893266,479.550001 L154.312991,490.224696 L156.338902,487.666036 L146.137391,479.549892 L156.338902,471.435926 L154.312991,468.876939 Z M159.018176,493.081083 L162.062338,494.246615 L172.800398,466.022513 L169.756237,464.856981 L159.018176,493.081083 Z" id="Shape-Copy-8" fill="#000000" fill-rule="nonzero"></path>
                        <path d="M585.889852,524.006391 L583.863941,526.565051 L594.065452,534.679017 L583.863941,542.792984 L585.889852,545.351643 L599.311749,534.678582 L585.889852,524.006391 Z M562.699268,524.006391 L549.279543,534.679453 L562.699268,545.354148 L564.725179,542.795488 L554.523668,534.679344 L564.725179,526.565378 L562.699268,524.006391 Z M567.404453,548.210534 L570.448615,549.376066 L581.186675,521.151965 L578.142514,519.986433 L567.404453,548.210534 Z" id="Shape-Copy-2" fill="#000000" fill-rule="nonzero"></path>
                        <path d="M585.889852,305.530416 L583.863941,308.089076 L594.065452,316.203042 L583.863941,324.317008 L585.889852,326.875668 L599.311749,316.202606 L585.889852,305.530416 Z M562.699268,305.530416 L549.279543,316.203478 L562.699268,326.878173 L564.725179,324.319513 L554.523668,316.203369 L564.725179,308.089402 L562.699268,305.530416 Z M567.404453,329.734559 L570.448615,330.900091 L581.186675,302.67599 L578.142514,301.510458 L567.404453,329.734559 Z" id="Shape-Copy-9" fill="#000000" fill-rule="nonzero"></path>
                        <path d="M99.0336722,594.85359 C87.2039979,594.85359 77.5933926,604.463725 77.5933926,616.292821 C77.5933926,628.121917 87.2039979,637.732052 99.0336722,637.732052 C110.863346,637.732052 120.473952,628.121917 120.473952,616.292821 C120.473952,604.463725 110.863346,594.85359 99.0336722,594.85359 Z M98.059114,596.893971 L98.059114,607.034727 L90.460484,607.034727 C90.9420522,605.257025 91.5549616,603.650593 92.2725775,602.268786 C93.8657364,599.202489 95.8910145,597.325582 98.0590166,596.893874 L98.059114,596.893971 Z M100.00823,596.893971 C102.176232,597.32603 104.20151,599.202733 105.794669,602.268884 C106.512285,603.650691 107.125185,605.257123 107.606763,607.034825 L100.008133,607.034825 L100.00823,596.893971 Z M93.0645034,597.731465 C92.1127987,598.74023 91.2619607,599.973619 90.5367432,601.370677 C89.6745029,603.030366 88.9644885,604.941333 88.4353522,607.03502 L81.8721902,607.03502 C84.2400742,602.653523 88.2448261,599.276942 93.0645034,597.731368 L93.0645034,597.731465 Z M105.002841,597.731465 C109.822323,599.27699 113.826978,602.653718 116.195154,607.035117 L109.631992,607.035117 C109.102856,604.94143 108.392841,603.030464 107.530601,601.370775 C106.805384,599.973717 105.954546,598.740376 105.002841,597.731563 L105.002841,597.731465 Z M80.958542,608.984138 L88.008983,608.984138 C87.6302015,610.976915 87.4055853,613.102956 87.3541773,615.318456 L79.5728177,615.318456 C79.6832157,613.087753 80.1628639,610.956011 80.958542,608.984138 Z M90.0034163,608.984138 L98.0586267,608.984138 L98.0586267,615.318456 L89.3027089,615.318456 C89.3579079,613.083953 89.6034527,610.957912 90.0031726,608.984138 L90.0034163,608.984138 Z M100.007743,608.984138 L108.062954,608.984138 C108.462673,610.957912 108.708208,613.083953 108.763417,615.318456 L100.007499,615.318456 L100.007743,608.984138 Z M110.057874,608.984138 L117.108315,608.984138 C117.903944,610.956011 118.383622,613.087753 118.494039,615.318456 L110.71268,615.318456 C110.661286,613.102956 110.43668,610.976915 110.057874,608.984138 Z M79.5727203,617.267477 L87.3540799,617.267477 C87.4054732,619.482978 87.6300796,621.61092 88.0088855,623.601796 L80.9584445,623.601796 C80.1628152,621.629923 79.6831377,619.498181 79.5727203,617.267477 L79.5727203,617.267477 Z M89.3031962,617.267477 L98.059114,617.267477 L98.059114,623.601796 L90.0039035,623.601796 C89.6022784,621.629923 89.3586486,619.503882 89.3034399,617.267477 L89.3031962,617.267477 Z M100.00823,617.267477 L108.764148,617.267477 C108.708949,619.503882 108.46531,621.629923 108.063684,623.601796 L100.008474,623.601796 L100.00823,617.267477 Z M110.713264,617.267477 L118.494624,617.267477 C118.384226,619.498181 117.904578,621.629923 117.1089,623.601796 L110.058459,623.601796 C110.43724,621.61092 110.661857,619.482978 110.713264,617.267477 L110.713264,617.267477 Z M81.8721902,625.550817 L88.4504578,625.550817 C88.9795942,627.638803 89.6743567,629.54212 90.536597,631.200054 C91.2656153,632.602813 92.1240548,633.840003 93.0796091,634.854469 C88.2544254,633.310844 84.2437775,629.936114 81.8721902,625.550817 Z M90.460484,625.550817 L98.059114,625.550817 L98.059114,635.691573 C95.8911119,635.257614 93.8658339,633.367609 92.2726749,630.301556 C91.555059,628.921649 90.9421594,627.320918 90.4605815,625.550817 L90.460484,625.550817 Z M100.00823,625.550817 L107.60686,625.550817 C107.125292,627.320918 106.512383,628.921649 105.794767,630.301556 C104.201608,633.367853 102.17633,635.257916 100.008328,635.691573 L100.00823,625.550817 Z M109.616887,625.550817 L116.195154,625.550817 C113.823469,629.936114 109.812773,633.310844 104.987735,634.854469 C105.943241,633.840003 106.801729,632.602813 107.530747,631.200054 C108.392988,629.542266 109.08775,627.6389 109.616887,625.550817 Z" id="Shape" fill="#000000" fill-rule="nonzero"></path>
                        <path d="M99.0336722,376.377614 C87.2039979,376.377614 77.5933926,385.98775 77.5933926,397.816846 C77.5933926,409.645941 87.2039979,419.256077 99.0336722,419.256077 C110.863346,419.256077 120.473952,409.645941 120.473952,397.816846 C120.473952,385.98775 110.863346,376.377614 99.0336722,376.377614 Z M98.059114,378.417996 L98.059114,388.558752 L90.460484,388.558752 C90.9420522,386.78105 91.5549616,385.174618 92.2725775,383.792811 C93.8657364,380.726514 95.8910145,378.849607 98.0590166,378.417898 L98.059114,378.417996 Z M100.00823,378.417996 C102.176232,378.850055 104.20151,380.726757 105.794669,383.792909 C106.512285,385.174716 107.125185,386.781148 107.606763,388.55885 L100.008133,388.55885 L100.00823,378.417996 Z M93.0645034,379.25549 C92.1127987,380.264255 91.2619607,381.497644 90.5367432,382.894702 C89.6745029,384.554391 88.9644885,386.465357 88.4353522,388.559045 L81.8721902,388.559045 C84.2400742,384.177548 88.2448261,380.800966 93.0645034,379.255393 L93.0645034,379.25549 Z M105.002841,379.25549 C109.822323,380.801015 113.826978,384.177743 116.195154,388.559142 L109.631992,388.559142 C109.102856,386.465455 108.392841,384.554489 107.530601,382.8948 C106.805384,381.497741 105.954546,380.264401 105.002841,379.255588 L105.002841,379.25549 Z M80.958542,390.508163 L88.008983,390.508163 C87.6302015,392.50094 87.4055853,394.62698 87.3541773,396.842481 L79.5728177,396.842481 C79.6832157,394.611778 80.1628639,392.480036 80.958542,390.508163 Z M90.0034163,390.508163 L98.0586267,390.508163 L98.0586267,396.842481 L89.3027089,396.842481 C89.3579079,394.607977 89.6034527,392.481937 90.0031726,390.508163 L90.0034163,390.508163 Z M100.007743,390.508163 L108.062954,390.508163 C108.462673,392.481937 108.708208,394.607977 108.763417,396.842481 L100.007499,396.842481 L100.007743,390.508163 Z M110.057874,390.508163 L117.108315,390.508163 C117.903944,392.480036 118.383622,394.611778 118.494039,396.842481 L110.71268,396.842481 C110.661286,394.62698 110.43668,392.50094 110.057874,390.508163 Z M79.5727203,398.791502 L87.3540799,398.791502 C87.4054732,401.007003 87.6300796,403.134944 88.0088855,405.125821 L80.9584445,405.125821 C80.1628152,403.153947 79.6831377,401.022206 79.5727203,398.791502 L79.5727203,398.791502 Z M89.3031962,398.791502 L98.059114,398.791502 L98.059114,405.125821 L90.0039035,405.125821 C89.6022784,403.153947 89.3586486,401.027907 89.3034399,398.791502 L89.3031962,398.791502 Z M100.00823,398.791502 L108.764148,398.791502 C108.708949,401.027907 108.46531,403.153947 108.063684,405.125821 L100.008474,405.125821 L100.00823,398.791502 Z M110.713264,398.791502 L118.494624,398.791502 C118.384226,401.022206 117.904578,403.153947 117.1089,405.125821 L110.058459,405.125821 C110.43724,403.134944 110.661857,401.007003 110.713264,398.791502 L110.713264,398.791502 Z M81.8721902,407.074842 L88.4504578,407.074842 C88.9795942,409.162828 89.6743567,411.066144 90.536597,412.724079 C91.2656153,414.126838 92.1240548,415.364028 93.0796091,416.378494 C88.2544254,414.834869 84.2437775,411.460139 81.8721902,407.074842 Z M90.460484,407.074842 L98.059114,407.074842 L98.059114,417.215598 C95.8911119,416.781639 93.8658339,414.891634 92.2726749,411.82558 C91.555059,410.445674 90.9421594,408.844943 90.4605815,407.074842 L90.460484,407.074842 Z M100.00823,407.074842 L107.60686,407.074842 C107.125292,408.844943 106.512383,410.445674 105.794767,411.82558 C104.201608,414.891878 102.17633,416.781941 100.008328,417.215598 L100.00823,407.074842 Z M109.616887,407.074842 L116.195154,407.074842 C113.823469,411.460139 109.812773,414.834869 104.987735,416.378494 C105.943241,415.364028 106.801729,414.126838 107.530747,412.724079 C108.392988,411.066291 109.08775,409.162925 109.616887,407.074842 Z" id="Shape-Copy-10" fill="#000000" fill-rule="nonzero"></path>
                        <path d="M507.419949,431.507066 C495.590275,431.507066 485.97967,441.117202 485.97967,452.946297 C485.97967,464.775393 495.590275,474.385529 507.419949,474.385529 C519.249623,474.385529 528.860229,464.775393 528.860229,452.946297 C528.860229,441.117202 519.249623,431.507066 507.419949,431.507066 Z M506.445391,433.547448 L506.445391,443.688204 L498.846761,443.688204 C499.328329,441.910502 499.941239,440.30407 500.658854,438.922263 C502.252013,435.855965 504.277291,433.979058 506.445294,433.54735 L506.445391,433.547448 Z M508.394507,433.547448 C510.562509,433.979506 512.587787,435.856209 514.180946,438.92236 C514.898562,440.304167 515.511462,441.910599 515.99304,443.688301 L508.39441,443.688301 L508.394507,433.547448 Z M501.45078,434.384942 C500.499076,435.393706 499.648238,436.627096 498.92302,438.024154 C498.06078,439.683843 497.350766,441.594809 496.821629,443.688496 L490.258467,443.688496 C492.626351,439.307 496.631103,435.930418 501.45078,434.384844 L501.45078,434.384942 Z M513.389118,434.384942 C518.2086,435.930467 522.213255,439.307194 524.581431,443.688594 L518.018269,443.688594 C517.489133,441.594907 516.779118,439.68394 515.916878,438.024251 C515.191661,436.627193 514.340823,435.393853 513.389118,434.385039 L513.389118,434.384942 Z M489.344819,445.637615 L496.39526,445.637615 C496.016478,447.630391 495.791862,449.756432 495.740454,451.971933 L487.959095,451.971933 C488.069493,449.74123 488.549141,447.609488 489.344819,445.637615 Z M498.389693,445.637615 L506.444904,445.637615 L506.444904,451.971933 L497.688986,451.971933 C497.744185,449.737429 497.98973,447.611388 498.38945,445.637615 L498.389693,445.637615 Z M508.39402,445.637615 L516.449231,445.637615 C516.84895,447.611388 517.094485,449.737429 517.149694,451.971933 L508.393776,451.971933 L508.39402,445.637615 Z M518.444151,445.637615 L525.494592,445.637615 C526.290221,447.609488 526.769899,449.74123 526.880316,451.971933 L519.098957,451.971933 C519.047563,449.756432 518.822957,447.630391 518.444151,445.637615 Z M487.958997,453.920954 L495.740357,453.920954 C495.79175,456.136455 496.016357,458.264396 496.395163,460.255272 L489.344722,460.255272 C488.549092,458.283399 488.069415,456.151657 487.958997,453.920954 L487.958997,453.920954 Z M497.689473,453.920954 L506.445391,453.920954 L506.445391,460.255272 L498.390181,460.255272 C497.988555,458.283399 497.744926,456.157358 497.689717,453.920954 L497.689473,453.920954 Z M508.394507,453.920954 L517.150425,453.920954 C517.095226,456.157358 516.851587,458.283399 516.449961,460.255272 L508.394751,460.255272 L508.394507,453.920954 Z M519.099541,453.920954 L526.880901,453.920954 C526.770503,456.151657 526.290855,458.283399 525.495177,460.255272 L518.444736,460.255272 C518.823517,458.264396 519.048134,456.136455 519.099541,453.920954 L519.099541,453.920954 Z M490.258467,462.204293 L496.836735,462.204293 C497.365871,464.29228 498.060634,466.195596 498.922874,467.853531 C499.651892,469.25629 500.510332,470.49348 501.465886,471.507945 C496.640702,469.964321 492.630055,466.589591 490.258467,462.204293 Z M498.846761,462.204293 L506.445391,462.204293 L506.445391,472.34505 C504.277389,471.91109 502.252111,470.021086 500.658952,466.955032 C499.941336,465.575125 499.328436,463.974394 498.846858,462.204293 L498.846761,462.204293 Z M508.394507,462.204293 L515.993137,462.204293 C515.511569,463.974394 514.89866,465.575125 514.181044,466.955032 C512.587885,470.021329 510.562607,471.911393 508.394605,472.34505 L508.394507,462.204293 Z M518.003164,462.204293 L524.581431,462.204293 C522.209746,466.589591 518.19905,469.964321 513.374012,471.507945 C514.329518,470.49348 515.188006,469.25629 515.917024,467.853531 C516.779265,466.195742 517.474027,464.292377 518.003164,462.204293 Z" id="Shape-Copy-3" fill="#000000" fill-rule="nonzero"></path>
                        <g id="Group" stroke-width="1" fill="none" fill-rule="evenodd" transform="translate(213.041508, 546.530243)">
                            <path d="M15.4733023,24.7344689 L21.0066489,30.2107539 L26.726613,24.7344689 C23.6312023,21.6256875 18.5689005,21.6256875 15.4733023,24.7344689 Z" id="Shape" fill="#000000" fill-rule="nonzero"></path>
                            <path d="M7.73665114,16.5662146 L11.0665058,19.8617307 C16.5998525,14.3854457 25.6498587,14.3854457 31.2286875,19.8617307 L34.5585422,16.5662146 C27.102286,9.2337191 15.0978168,9.2337191 7.73674491,16.5662146 L7.73665114,16.5662146 Z" id="Shape" fill="#000000" fill-rule="nonzero"></path>
                            <path d="M0.0934024792,9.00169279 L3.42325713,12.2972089 C13.1765953,2.64445028 29.070959,2.64445028 38.8242972,12.2972089 L42.1541518,9.00169279 C30.5252618,-2.45994296 11.6745597,-2.45994296 0.0934962568,9.00169279 L0.0934024792,9.00169279 Z" id="Shape" fill="#000000" fill-rule="nonzero"></path>
                        </g>
                        <g id="Group-Copy-2" stroke-width="1" fill="none" fill-rule="evenodd" transform="translate(213.041508, 328.054268)">
                            <path d="M15.4733023,24.7344689 L21.0066489,30.2107539 L26.726613,24.7344689 C23.6312023,21.6256875 18.5689005,21.6256875 15.4733023,24.7344689 Z" id="Shape" fill="#000000" fill-rule="nonzero"></path>
                            <path d="M7.73665114,16.5662146 L11.0665058,19.8617307 C16.5998525,14.3854457 25.6498587,14.3854457 31.2286875,19.8617307 L34.5585422,16.5662146 C27.102286,9.2337191 15.0978168,9.2337191 7.73674491,16.5662146 L7.73665114,16.5662146 Z" id="Shape" fill="#000000" fill-rule="nonzero"></path>
                            <path d="M0.0934024792,9.00169279 L3.42325713,12.2972089 C13.1765953,2.64445028 29.070959,2.64445028 38.8242972,12.2972089 L42.1541518,9.00169279 C30.5252618,-2.45994296 11.6745597,-2.45994296 0.0934962568,9.00169279 L0.0934024792,9.00169279 Z" id="Shape" fill="#000000" fill-rule="nonzero"></path>
                        </g>
                        <g id="Group-Copy" stroke-width="1" fill="none" fill-rule="evenodd" transform="translate(621.427785, 383.183720)">
                            <path d="M15.4733023,24.7344689 L21.0066489,30.2107539 L26.726613,24.7344689 C23.6312023,21.6256875 18.5689005,21.6256875 15.4733023,24.7344689 Z" id="Shape" fill="#000000" fill-rule="nonzero"></path>
                            <path d="M7.73665114,16.5662146 L11.0665058,19.8617307 C16.5998525,14.3854457 25.6498587,14.3854457 31.2286875,19.8617307 L34.5585422,16.5662146 C27.102286,9.2337191 15.0978168,9.2337191 7.73674491,16.5662146 L7.73665114,16.5662146 Z" id="Shape" fill="#000000" fill-rule="nonzero"></path>
                            <path d="M0.0934024792,9.00169279 L3.42325713,12.2972089 C13.1765953,2.64445028 29.070959,2.64445028 38.8242972,12.2972089 L42.1541518,9.00169279 C30.5252618,-2.45994296 11.6745597,-2.45994296 0.0934962568,9.00169279 L0.0934024792,9.00169279 Z" id="Shape" fill="#000000" fill-rule="nonzero"></path>
                        </g>
                        <path d="M317.354498,641.422648 C317.950062,626.193988 298.424433,623.990171 294.007736,635.501881 C289.323,634.462385 285.425498,637.620826 284.819044,641.491798 C273.452974,642.783869 275.074948,659.118249 286.044748,659.118249 L317.354362,659.118249 C329.068923,659.118249 329.071645,641.422376 317.354362,641.422376 L317.354498,641.422648 Z M317.354498,656.396079 L286.044884,656.396079 C278.571415,656.396079 276.672419,644.14509 287.406171,644.14509 C287.065849,639.210664 291.404954,636.743451 295.573897,639.176089 C299.865152,626.308467 314.631923,630.618092 314.631923,640.742038 L314.631923,644.14509 L317.354498,644.14509 C325.469134,644.14509 325.471856,656.396079 317.354498,656.396079 Z" id="Shape" fill="#000000" fill-rule="nonzero"></path>
                        <path d="M317.354498,422.946673 C317.950062,407.718013 298.424433,405.514196 294.007736,417.025906 C289.323,415.98641 285.425498,419.144851 284.819044,423.015823 C273.452974,424.307894 275.074948,440.642274 286.044748,440.642274 L317.354362,440.642274 C329.068923,440.642274 329.071645,422.946401 317.354362,422.946401 L317.354498,422.946673 Z M317.354498,437.920104 L286.044884,437.920104 C278.571415,437.920104 276.672419,425.669115 287.406171,425.669115 C287.065849,420.734689 291.404954,418.267476 295.573897,420.700114 C299.865152,407.832491 314.631923,412.142117 314.631923,422.266063 L314.631923,425.669115 L317.354498,425.669115 C325.469134,425.669115 325.471856,437.920104 317.354498,437.920104 Z" id="Shape-Copy-12" fill="#000000" fill-rule="nonzero"></path>
                        <path d="M725.740775,478.076125 C726.336339,462.847464 706.81071,460.643648 702.394013,472.155358 C697.709277,471.115861 693.811775,474.274302 693.205321,478.145275 C681.839251,479.437346 683.461225,495.771726 694.431025,495.771726 L725.740639,495.771726 C737.4552,495.771726 737.457922,478.075852 725.740639,478.075852 L725.740775,478.076125 Z M725.740775,493.049556 L694.431161,493.049556 C686.957692,493.049556 685.058696,480.798567 695.792448,480.798567 C695.452126,475.864141 699.791231,473.396927 703.960174,475.829566 C708.251429,462.961943 723.0182,467.271569 723.0182,477.395514 L723.0182,480.798567 L725.740775,480.798567 C733.855411,480.798567 733.858133,493.049556 725.740775,493.049556 Z" id="Shape-Copy-4" fill="#000000" fill-rule="nonzero"></path>
                        <path d="M381.422049,508.592276 C381.487735,508.265056 381.384513,507.925298 381.148354,507.688904 L363.131312,489.652726 C362.845105,489.366215 362.416556,489.280102 362.039639,489.435101 C361.66585,489.5901 361.421855,489.954904 361.421855,490.360397 L361.421855,515.867963 C361.421855,516.203011 361.589201,516.51458 361.866035,516.700873 C362.144423,516.887183 362.496311,516.921628 362.806004,516.793247 L369.039901,514.208382 L373.428452,524.812452 C373.587979,525.199164 373.960195,525.430893 374.354327,525.430893 C374.481011,525.430893 374.612384,525.405842 374.737502,525.354175 L378.43632,523.82142 C378.681865,523.719652 378.875816,523.525515 378.977472,523.279694 C379.079132,523.033889 379.079132,522.758328 378.977472,522.512515 L374.588921,511.906841 L380.822818,509.321976 C381.132487,509.193594 381.356122,508.921172 381.421824,508.592392 L381.422049,508.592276 Z M372.896785,510.439742 C372.651241,510.54151 372.457289,510.735648 372.355633,510.981469 C372.253977,511.22729 372.253973,511.502835 372.355633,511.748648 L376.744184,522.352718 L374.895555,523.119897 L370.507004,512.515826 C370.347478,512.129115 369.975261,511.897386 369.581129,511.897386 C369.454445,511.897386 369.323073,511.922436 369.197954,511.974104 L363.423693,514.367986 L363.423693,492.779482 L378.672516,508.044501 L372.896785,510.439742 Z" id="Shape" fill="#000000" fill-rule="nonzero"></path>
                        <path d="M381.422049,290.116301 C381.487735,289.789081 381.384513,289.449323 381.148354,289.212929 L363.131312,271.17675 C362.845105,270.89024 362.416556,270.804127 362.039639,270.959126 C361.66585,271.114125 361.421855,271.478929 361.421855,271.884422 L361.421855,297.391987 C361.421855,297.727035 361.589201,298.038604 361.866035,298.224898 C362.144423,298.411208 362.496311,298.445653 362.806004,298.317271 L369.039901,295.732406 L373.428452,306.336477 C373.587979,306.723189 373.960195,306.954918 374.354327,306.954918 C374.481011,306.954918 374.612384,306.929867 374.737502,306.8782 L378.43632,305.345445 C378.681865,305.243677 378.875816,305.04954 378.977472,304.803719 C379.079132,304.557913 379.079132,304.282353 378.977472,304.03654 L374.588921,293.430866 L380.822818,290.846001 C381.132487,290.717619 381.356122,290.445197 381.421824,290.116417 L381.422049,290.116301 Z M372.896785,291.963767 C372.651241,292.065535 372.457289,292.259673 372.355633,292.505494 C372.253977,292.751315 372.253973,293.026859 372.355633,293.272672 L376.744184,303.876743 L374.895555,304.643922 L370.507004,294.039851 C370.347478,293.65314 369.975261,293.421411 369.581129,293.421411 C369.454445,293.421411 369.323073,293.446461 369.197954,293.498129 L363.423693,295.892011 L363.423693,274.303506 L378.672516,289.568526 L372.896785,291.963767 Z" id="Shape-Copy-14" fill="#000000" fill-rule="nonzero"></path>
                        <path d="M789.808326,345.245753 C789.874012,344.918532 789.77079,344.578775 789.534631,344.342381 L771.517589,326.306202 C771.231382,326.019691 770.802833,325.933579 770.425916,326.088578 C770.052127,326.243576 769.808132,326.60838 769.808132,327.013874 L769.808132,352.521439 C769.808132,352.856487 769.975478,353.168056 770.252312,353.35435 C770.5307,353.540659 770.882588,353.575105 771.192281,353.446723 L777.426178,350.861858 L781.814729,361.465929 C781.974256,361.85264 782.346472,362.084369 782.740604,362.084369 C782.867288,362.084369 782.998661,362.059319 783.123779,362.007651 L786.822597,360.474897 C787.068142,360.373129 787.262093,360.178991 787.363749,359.93317 C787.465409,359.687365 787.465409,359.411804 787.363749,359.165991 L782.975198,348.560317 L789.209095,345.975453 C789.518764,345.847071 789.742399,345.574649 789.808101,345.245869 L789.808326,345.245753 Z M781.283062,347.093219 C781.037518,347.194987 780.843566,347.389124 780.74191,347.634945 C780.640254,347.880766 780.64025,348.156311 780.74191,348.402124 L785.130461,359.006195 L783.281832,359.773374 L778.893281,349.169303 C778.733755,348.782591 778.361538,348.550862 777.967406,348.550862 C777.840722,348.550862 777.70935,348.575913 777.584231,348.62758 L771.80997,351.021462 L771.80997,329.432958 L787.058793,344.697978 L781.283062,347.093219 Z" id="Shape-Copy-5" fill="#000000" fill-rule="nonzero"></path>
                        <path d="M585.889852,741.801756 L583.863941,744.360416 L594.065452,752.474382 L583.863941,760.588348 L585.889852,763.147008 L599.311749,752.473946 L585.889852,741.801756 Z M562.699268,741.801756 L549.279543,752.474817 L562.699268,763.149513 L564.725179,760.590853 L554.523668,752.474709 L564.725179,744.360742 L562.699268,741.801756 Z M567.404453,766.005899 L570.448615,767.171431 L581.186675,738.94733 L578.142514,737.781798 L567.404453,766.005899 Z" id="Shape-Copy-28" fill="#000000" fill-rule="nonzero"></path>
                        <path d="M507.419949,649.302431 C495.590275,649.302431 485.97967,658.912566 485.97967,670.741662 C485.97967,682.570758 495.590275,692.180893 507.419949,692.180893 C519.249623,692.180893 528.860229,682.570758 528.860229,670.741662 C528.860229,658.912566 519.249623,649.302431 507.419949,649.302431 Z M506.445391,651.342812 L506.445391,661.483568 L498.846761,661.483568 C499.328329,659.705866 499.941239,658.099435 500.658854,656.717627 C502.252013,653.65133 504.277291,651.774423 506.445294,651.342715 L506.445391,651.342812 Z M508.394507,651.342812 C510.562509,651.774871 512.587787,653.651574 514.180946,656.717725 C514.898562,658.099532 515.511462,659.705964 515.99304,661.483666 L508.39441,661.483666 L508.394507,651.342812 Z M501.45078,652.180306 C500.499076,653.189071 499.648238,654.42246 498.92302,655.819519 C498.06078,657.479207 497.350766,659.390174 496.821629,661.483861 L490.258467,661.483861 C492.626351,657.102364 496.631103,653.725783 501.45078,652.180209 L501.45078,652.180306 Z M513.389118,652.180306 C518.2086,653.725831 522.213255,657.102559 524.581431,661.483958 L518.018269,661.483958 C517.489133,659.390271 516.779118,657.479305 515.916878,655.819616 C515.191661,654.422558 514.340823,653.189217 513.389118,652.180404 L513.389118,652.180306 Z M489.344819,663.432979 L496.39526,663.432979 C496.016478,665.425756 495.791862,667.551797 495.740454,669.767298 L487.959095,669.767298 C488.069493,667.536594 488.549141,665.404853 489.344819,663.432979 Z M498.389693,663.432979 L506.444904,663.432979 L506.444904,669.767298 L497.688986,669.767298 C497.744185,667.532794 497.98973,665.406753 498.38945,663.432979 L498.389693,663.432979 Z M508.39402,663.432979 L516.449231,663.432979 C516.84895,665.406753 517.094485,667.532794 517.149694,669.767298 L508.393776,669.767298 L508.39402,663.432979 Z M518.444151,663.432979 L525.494592,663.432979 C526.290221,665.404853 526.769899,667.536594 526.880316,669.767298 L519.098957,669.767298 C519.047563,667.551797 518.822957,665.425756 518.444151,663.432979 Z M487.958997,671.716319 L495.740357,671.716319 C495.79175,673.93182 496.016357,676.059761 496.395163,678.050637 L489.344722,678.050637 C488.549092,676.078764 488.069415,673.947022 487.958997,671.716319 L487.958997,671.716319 Z M497.689473,671.716319 L506.445391,671.716319 L506.445391,678.050637 L498.390181,678.050637 C497.988555,676.078764 497.744926,673.952723 497.689717,671.716319 L497.689473,671.716319 Z M508.394507,671.716319 L517.150425,671.716319 C517.095226,673.952723 516.851587,676.078764 516.449961,678.050637 L508.394751,678.050637 L508.394507,671.716319 Z M519.099541,671.716319 L526.880901,671.716319 C526.770503,673.947022 526.290855,676.078764 525.495177,678.050637 L518.444736,678.050637 C518.823517,676.059761 519.048134,673.93182 519.099541,671.716319 L519.099541,671.716319 Z M490.258467,679.999658 L496.836735,679.999658 C497.365871,682.087644 498.060634,683.990961 498.922874,685.648895 C499.651892,687.051655 500.510332,688.288844 501.465886,689.30331 C496.640702,687.759685 492.630055,684.384955 490.258467,679.999658 Z M498.846761,679.999658 L506.445391,679.999658 L506.445391,690.140414 C504.277389,689.706455 502.252111,687.81645 500.658952,684.750397 C499.941336,683.37049 499.328436,681.769759 498.846858,679.999658 L498.846761,679.999658 Z M508.394507,679.999658 L515.993137,679.999658 C515.511569,681.769759 514.89866,683.37049 514.181044,684.750397 C512.587885,687.816694 510.562607,689.706757 508.394605,690.140414 L508.394507,679.999658 Z M518.003164,679.999658 L524.581431,679.999658 C522.209746,684.384955 518.19905,687.759685 513.374012,689.30331 C514.329518,688.288844 515.188006,687.051655 515.917024,685.648895 C516.779265,683.991107 517.474027,682.087742 518.003164,679.999658 Z" id="Shape-Copy-24" fill="#000000" fill-rule="nonzero"></path>
                        <g id="Group-Copy-4" stroke-width="1" fill="none" fill-rule="evenodd" transform="translate(621.427785, 600.979084)">
                            <path d="M15.4733023,24.7344689 L21.0066489,30.2107539 L26.726613,24.7344689 C23.6312023,21.6256875 18.5689005,21.6256875 15.4733023,24.7344689 Z" id="Shape" fill="#000000" fill-rule="nonzero"></path>
                            <path d="M7.73665114,16.5662146 L11.0665058,19.8617307 C16.5998525,14.3854457 25.6498587,14.3854457 31.2286875,19.8617307 L34.5585422,16.5662146 C27.102286,9.2337191 15.0978168,9.2337191 7.73674491,16.5662146 L7.73665114,16.5662146 Z" id="Shape" fill="#000000" fill-rule="nonzero"></path>
                            <path d="M0.0934024792,9.00169279 L3.42325713,12.2972089 C13.1765953,2.64445028 29.070959,2.64445028 38.8242972,12.2972089 L42.1541518,9.00169279 C30.5252618,-2.45994296 11.6745597,-2.45994296 0.0934962568,9.00169279 L0.0934024792,9.00169279 Z" id="Shape" fill="#000000" fill-rule="nonzero"></path>
                        </g>
                        <path d="M725.740775,695.871489 C726.336339,680.642829 706.81071,678.439012 702.394013,689.950722 C697.709277,688.911226 693.811775,692.069667 693.205321,695.940639 C681.839251,697.23271 683.461225,713.56709 694.431025,713.56709 L725.740639,713.56709 C737.4552,713.56709 737.457922,695.871217 725.740639,695.871217 L725.740775,695.871489 Z M725.740775,710.844921 L694.431161,710.844921 C686.957692,710.844921 685.058696,698.593931 695.792448,698.593931 C695.452126,693.659505 699.791231,691.192292 703.960174,693.62493 C708.251429,680.757308 723.0182,685.066934 723.0182,695.190879 L723.0182,698.593931 L725.740775,698.593931 C733.855411,698.593931 733.858133,710.844921 725.740775,710.844921 Z" id="Shape-Copy-20" fill="#000000" fill-rule="nonzero"></path>
                        <path d="M381.422049,726.387641 C381.487735,726.060421 381.384513,725.720663 381.148354,725.484269 L363.131312,707.44809 C362.845105,707.161579 362.416556,707.075467 362.039639,707.230466 C361.66585,707.385465 361.421855,707.750268 361.421855,708.155762 L361.421855,733.663327 C361.421855,733.998375 361.589201,734.309944 361.866035,734.496238 C362.144423,734.682548 362.496311,734.716993 362.806004,734.588611 L369.039901,732.003746 L373.428452,742.607817 C373.587979,742.994529 373.960195,743.226257 374.354327,743.226257 C374.481011,743.226257 374.612384,743.201207 374.737502,743.149539 L378.43632,741.616785 C378.681865,741.515017 378.875816,741.320879 378.977472,741.075058 C379.079132,740.829253 379.079132,740.553692 378.977472,740.307879 L374.588921,729.702206 L380.822818,727.117341 C381.132487,726.988959 381.356122,726.716537 381.421824,726.387757 L381.422049,726.387641 Z M372.896785,728.235107 C372.651241,728.336875 372.457289,728.531012 372.355633,728.776833 C372.253977,729.022654 372.253973,729.298199 372.355633,729.544012 L376.744184,740.148083 L374.895555,740.915262 L370.507004,730.311191 C370.347478,729.924479 369.975261,729.692751 369.581129,729.692751 C369.454445,729.692751 369.323073,729.717801 369.197954,729.769468 L363.423693,732.16335 L363.423693,710.574846 L378.672516,725.839866 L372.896785,728.235107 Z" id="Shape-Copy-18" fill="#000000" fill-rule="nonzero"></path>
                        <path d="M789.808326,563.041117 C789.874012,562.713897 789.77079,562.37414 789.534631,562.137745 L771.517589,544.101567 C771.231382,543.815056 770.802833,543.728943 770.425916,543.883942 C770.052127,544.038941 769.808132,544.403745 769.808132,544.809238 L769.808132,570.316804 C769.808132,570.651852 769.975478,570.963421 770.252312,571.149714 C770.5307,571.336024 770.882588,571.370469 771.192281,571.242088 L777.426178,568.657223 L781.814729,579.261293 C781.974256,579.648005 782.346472,579.879734 782.740604,579.879734 C782.867288,579.879734 782.998661,579.854684 783.123779,579.803016 L786.822597,578.270261 C787.068142,578.168493 787.262093,577.974356 787.363749,577.728535 C787.465409,577.48273 787.465409,577.207169 787.363749,576.961356 L782.975198,566.355682 L789.209095,563.770817 C789.518764,563.642436 789.742399,563.370013 789.808101,563.041234 L789.808326,563.041117 Z M781.283062,564.888583 C781.037518,564.990351 780.843566,565.184489 780.74191,565.43031 C780.640254,565.676131 780.64025,565.951676 780.74191,566.197489 L785.130461,576.801559 L783.281832,577.568738 L778.893281,566.964668 C778.733755,566.577956 778.361538,566.346227 777.967406,566.346227 C777.840722,566.346227 777.70935,566.371277 777.584231,566.422945 L771.80997,568.816827 L771.80997,547.228323 L787.058793,562.493343 L781.283062,564.888583 Z" id="Shape-Copy-16" fill="#000000" fill-rule="nonzero"></path>
                        <path d="M874.83765,658.270196 L870.59159,658.270196 L870.59159,629.506234 C870.59159,629.163268 870.315078,628.884115 869.972095,628.884115 L822.257604,628.884115 C821.91462,628.884115 821.638109,629.163275 821.638109,629.506234 L821.638109,658.270196 L817.392049,658.270196 C817.049066,658.270196 816.772554,658.546694 816.772554,658.88966 L816.772554,659.554317 C816.772554,659.897284 817.051727,660.173782 817.392049,660.173782 L874.839746,660.173782 C875.18273,660.173782 875.459241,659.897284 875.459241,659.554317 L875.459241,658.892315 C875.459241,658.546694 875.180068,658.270196 874.837092,658.270196 L874.83765,658.270196 Z M846.115162,629.551835 C846.221513,629.551835 846.306594,629.639573 846.306594,629.745918 C846.306594,629.852263 846.221513,629.940001 846.115162,629.940001 C846.008812,629.940001 845.92107,629.852263 845.92107,629.745918 C845.923729,629.639573 846.008812,629.551835 846.115162,629.551835 Z M848.404372,659.022951 L843.823299,659.022951 C843.661115,659.022951 843.528178,658.890021 843.528178,658.727845 C843.528178,658.563008 843.661115,658.430078 843.823299,658.430078 L848.404372,658.430078 C848.566556,658.430078 848.699492,658.560354 848.699492,658.727845 C848.702151,658.890021 848.56921,659.022951 848.404372,659.022951 Z M868.688237,655.917665 L823.542496,655.917665 L823.542496,630.607122 L868.688237,630.607122 L868.688237,655.917665 Z" id="Shape-Copy-75" fill="#000000" fill-rule="nonzero"></path>
                        <path d="M874.83765,439.794221 L870.59159,439.794221 L870.59159,411.030259 C870.59159,410.687293 870.315078,410.40814 869.972095,410.40814 L822.257604,410.40814 C821.91462,410.40814 821.638109,410.687299 821.638109,411.030259 L821.638109,439.794221 L817.392049,439.794221 C817.049066,439.794221 816.772554,440.070719 816.772554,440.413685 L816.772554,441.078342 C816.772554,441.421309 817.051727,441.697807 817.392049,441.697807 L874.839746,441.697807 C875.18273,441.697807 875.459241,441.421309 875.459241,441.078342 L875.459241,440.416339 C875.459241,440.070719 875.180068,439.794221 874.837092,439.794221 L874.83765,439.794221 Z M846.115162,411.07586 C846.221513,411.07586 846.306594,411.163597 846.306594,411.269943 C846.306594,411.376288 846.221513,411.464026 846.115162,411.464026 C846.008812,411.464026 845.92107,411.376288 845.92107,411.269943 C845.923729,411.163597 846.008812,411.07586 846.115162,411.07586 Z M848.404372,440.546976 L843.823299,440.546976 C843.661115,440.546976 843.528178,440.414046 843.528178,440.25187 C843.528178,440.087033 843.661115,439.954103 843.823299,439.954103 L848.404372,439.954103 C848.566556,439.954103 848.699492,440.084378 848.699492,440.25187 C848.702151,440.414046 848.56921,440.546976 848.404372,440.546976 Z M868.688237,437.44169 L823.542496,437.44169 L823.542496,412.131147 L868.688237,412.131147 L868.688237,437.44169 Z" id="Shape-Copy-74" fill="#000000" fill-rule="nonzero"></path>
                        <path d="M1283.22393,494.923672 L1278.97787,494.923672 L1278.97787,466.159711 C1278.97787,465.816744 1278.70136,465.537592 1278.35837,465.537592 L1230.64388,465.537592 C1230.3009,465.537592 1230.02439,465.816751 1230.02439,466.159711 L1230.02439,494.923672 L1225.77833,494.923672 C1225.43534,494.923672 1225.15883,495.20017 1225.15883,495.543137 L1225.15883,496.207794 C1225.15883,496.55076 1225.438,496.827258 1225.77833,496.827258 L1283.22602,496.827258 C1283.56901,496.827258 1283.84552,496.55076 1283.84552,496.207794 L1283.84552,495.545791 C1283.84552,495.20017 1283.56635,494.923672 1283.22337,494.923672 L1283.22393,494.923672 Z M1254.50144,466.205312 C1254.60779,466.205312 1254.69287,466.293049 1254.69287,466.399395 C1254.69287,466.50574 1254.60779,466.593477 1254.50144,466.593477 C1254.39509,466.593477 1254.30735,466.50574 1254.30735,466.399395 C1254.31001,466.293049 1254.39509,466.205312 1254.50144,466.205312 Z M1256.79065,495.676427 L1252.20958,495.676427 C1252.04739,495.676427 1251.91446,495.543497 1251.91446,495.381322 C1251.91446,495.216485 1252.04739,495.083554 1252.20958,495.083554 L1256.79065,495.083554 C1256.95283,495.083554 1257.08577,495.21383 1257.08577,495.381322 C1257.08843,495.543497 1256.95549,495.676427 1256.79065,495.676427 Z M1277.07451,492.571142 L1231.92877,492.571142 L1231.92877,467.260598 L1277.07451,467.260598 L1277.07451,492.571142 Z" id="Shape-Copy-73" fill="#000000" fill-rule="nonzero"></path>
                        <path d="M994.276129,579.816453 L992.250218,582.375113 L1002.45173,590.489079 L992.250218,598.603046 L994.276129,601.161706 L1007.69803,590.488644 L994.276129,579.816453 Z M971.085545,579.816453 L957.66582,590.489515 L971.085545,601.16421 L973.111456,598.60555 L962.909945,590.489406 L973.111456,582.37544 L971.085545,579.816453 Z M975.79073,604.020596 L978.834892,605.186128 L989.572952,576.962027 L986.528791,575.796495 L975.79073,604.020596 Z" id="Shape-Copy-71" fill="#000000" fill-rule="nonzero"></path>
                        <path d="M994.276129,361.340478 L992.250218,363.899138 L1002.45173,372.013104 L992.250218,380.127071 L994.276129,382.685731 L1007.69803,372.012669 L994.276129,361.340478 Z M971.085545,361.340478 L957.66582,372.01354 L971.085545,382.688235 L973.111456,380.129575 L962.909945,372.013431 L973.111456,363.899465 L971.085545,361.340478 Z M975.79073,385.544621 L978.834892,386.710153 L989.572952,358.486052 L986.528791,357.32052 L975.79073,385.544621 Z" id="Shape-Copy-70" fill="#000000" fill-rule="nonzero"></path>
                        <path d="M1402.66241,416.46993 L1400.63649,419.02859 L1410.83801,427.142556 L1400.63649,435.256522 L1402.66241,437.815182 L1416.0843,427.14212 L1402.66241,416.46993 Z M1379.47182,416.46993 L1366.0521,427.142992 L1379.47182,437.817687 L1381.49773,435.259027 L1371.29622,427.142883 L1381.49773,419.028916 L1379.47182,416.46993 Z M1384.17701,440.674073 L1387.22117,441.839605 L1397.95923,413.615504 L1394.91507,412.449972 L1384.17701,440.674073 Z" id="Shape-Copy-69" fill="#000000" fill-rule="nonzero"></path>
                        <path d="M915.806226,487.317128 C903.976552,487.317128 894.365947,496.927264 894.365947,508.75636 C894.365947,520.585455 903.976552,530.195591 915.806226,530.195591 C927.6359,530.195591 937.246506,520.585455 937.246506,508.75636 C937.246506,496.927264 927.6359,487.317128 915.806226,487.317128 Z M914.831668,489.35751 L914.831668,499.498266 L907.233038,499.498266 C907.714606,497.720564 908.327516,496.114132 909.045131,494.732325 C910.63829,491.666028 912.663568,489.78912 914.831571,489.357412 L914.831668,489.35751 Z M916.780784,489.35751 C918.948786,489.789569 920.974064,491.666271 922.567223,494.732422 C923.284839,496.11423 923.897739,497.720661 924.379317,499.498364 L916.780687,499.498364 L916.780784,489.35751 Z M909.837057,490.195004 C908.885353,491.203769 908.034515,492.437158 907.309297,493.834216 C906.447057,495.493905 905.737043,497.404871 905.207906,499.498558 L898.644744,499.498558 C901.012628,495.117062 905.01738,491.74048 909.837057,490.194907 L909.837057,490.195004 Z M921.775395,490.195004 C926.594877,491.740529 930.599532,495.117257 932.967708,499.498656 L926.404546,499.498656 C925.87541,497.404969 925.165395,495.494002 924.303155,493.834314 C923.577938,492.437255 922.7271,491.203915 921.775395,490.195101 L921.775395,490.195004 Z M897.731096,501.447677 L904.781537,501.447677 C904.402755,503.440453 904.178139,505.566494 904.126731,507.781995 L896.345372,507.781995 C896.45577,505.551292 896.935418,503.41955 897.731096,501.447677 Z M906.77597,501.447677 L914.831181,501.447677 L914.831181,507.781995 L906.075263,507.781995 C906.130462,505.547491 906.376007,503.42145 906.775727,501.447677 L906.77597,501.447677 Z M916.780297,501.447677 L924.835508,501.447677 C925.235227,503.42145 925.480762,505.547491 925.535971,507.781995 L916.780053,507.781995 L916.780297,501.447677 Z M926.830428,501.447677 L933.880869,501.447677 C934.676498,503.41955 935.156176,505.551292 935.266593,507.781995 L927.485234,507.781995 C927.43384,505.566494 927.209234,503.440453 926.830428,501.447677 Z M896.345274,509.731016 L904.126634,509.731016 C904.178027,511.946517 904.402634,514.074458 904.78144,516.065335 L897.730999,516.065335 C896.935369,514.093461 896.455692,511.961719 896.345274,509.731016 L896.345274,509.731016 Z M906.07575,509.731016 L914.831668,509.731016 L914.831668,516.065335 L906.776458,516.065335 C906.374832,514.093461 906.131203,511.96742 906.075994,509.731016 L906.07575,509.731016 Z M916.780784,509.731016 L925.536702,509.731016 C925.481503,511.96742 925.237864,514.093461 924.836238,516.065335 L916.781028,516.065335 L916.780784,509.731016 Z M927.485818,509.731016 L935.267178,509.731016 C935.15678,511.961719 934.677132,514.093461 933.881454,516.065335 L926.831013,516.065335 C927.209794,514.074458 927.434411,511.946517 927.485818,509.731016 L927.485818,509.731016 Z M898.644744,518.014356 L905.223012,518.014356 C905.752148,520.102342 906.446911,522.005658 907.309151,523.663593 C908.038169,525.066352 908.896609,526.303542 909.852163,527.318007 C905.026979,525.774383 901.016332,522.399653 898.644744,518.014356 Z M907.233038,518.014356 L914.831668,518.014356 L914.831668,528.155112 C912.663666,527.721153 910.638388,525.831148 909.045229,522.765094 C908.327613,521.385187 907.714713,519.784456 907.233135,518.014356 L907.233038,518.014356 Z M916.780784,518.014356 L924.379414,518.014356 C923.897846,519.784456 923.284937,521.385187 922.567321,522.765094 C920.974162,525.831392 918.948884,527.721455 916.780882,528.155112 L916.780784,518.014356 Z M926.389441,518.014356 L932.967708,518.014356 C930.596023,522.399653 926.585327,525.774383 921.760289,527.318007 C922.715795,526.303542 923.574283,525.066352 924.303301,523.663593 C925.165542,522.005804 925.860304,520.102439 926.389441,518.014356 Z" id="Shape-Copy-67" fill="#000000" fill-rule="nonzero"></path>
                        <path d="M915.806226,268.841153 C903.976552,268.841153 894.365947,278.451289 894.365947,290.280384 C894.365947,302.10948 903.976552,311.719616 915.806226,311.719616 C927.6359,311.719616 937.246506,302.10948 937.246506,290.280384 C937.246506,278.451289 927.6359,268.841153 915.806226,268.841153 Z M914.831668,270.881535 L914.831668,281.022291 L907.233038,281.022291 C907.714606,279.244589 908.327516,277.638157 909.045131,276.25635 C910.63829,273.190053 912.663568,271.313145 914.831571,270.881437 L914.831668,270.881535 Z M916.780784,270.881535 C918.948786,271.313594 920.974064,273.190296 922.567223,276.256447 C923.284839,277.638254 923.897739,279.244686 924.379317,281.022388 L916.780687,281.022388 L916.780784,270.881535 Z M909.837057,271.719029 C908.885353,272.727793 908.034515,273.961183 907.309297,275.358241 C906.447057,277.01793 905.737043,278.928896 905.207906,281.022583 L898.644744,281.022583 C901.012628,276.641087 905.01738,273.264505 909.837057,271.718931 L909.837057,271.719029 Z M921.775395,271.719029 C926.594877,273.264554 930.599532,276.641281 932.967708,281.022681 L926.404546,281.022681 C925.87541,278.928994 925.165395,277.018027 924.303155,275.358338 C923.577938,273.96128 922.7271,272.72794 921.775395,271.719126 L921.775395,271.719029 Z M897.731096,282.971702 L904.781537,282.971702 C904.402755,284.964478 904.178139,287.090519 904.126731,289.30602 L896.345372,289.30602 C896.45577,287.075317 896.935418,284.943575 897.731096,282.971702 Z M906.77597,282.971702 L914.831181,282.971702 L914.831181,289.30602 L906.075263,289.30602 C906.130462,287.071516 906.376007,284.945475 906.775727,282.971702 L906.77597,282.971702 Z M916.780297,282.971702 L924.835508,282.971702 C925.235227,284.945475 925.480762,287.071516 925.535971,289.30602 L916.780053,289.30602 L916.780297,282.971702 Z M926.830428,282.971702 L933.880869,282.971702 C934.676498,284.943575 935.156176,287.075317 935.266593,289.30602 L927.485234,289.30602 C927.43384,287.090519 927.209234,284.964478 926.830428,282.971702 Z M896.345274,291.255041 L904.126634,291.255041 C904.178027,293.470542 904.402634,295.598483 904.78144,297.589359 L897.730999,297.589359 C896.935369,295.617486 896.455692,293.485744 896.345274,291.255041 L896.345274,291.255041 Z M906.07575,291.255041 L914.831668,291.255041 L914.831668,297.589359 L906.776458,297.589359 C906.374832,295.617486 906.131203,293.491445 906.075994,291.255041 L906.07575,291.255041 Z M916.780784,291.255041 L925.536702,291.255041 C925.481503,293.491445 925.237864,295.617486 924.836238,297.589359 L916.781028,297.589359 L916.780784,291.255041 Z M927.485818,291.255041 L935.267178,291.255041 C935.15678,293.485744 934.677132,295.617486 933.881454,297.589359 L926.831013,297.589359 C927.209794,295.598483 927.434411,293.470542 927.485818,291.255041 L927.485818,291.255041 Z M898.644744,299.53838 L905.223012,299.53838 C905.752148,301.626367 906.446911,303.529683 907.309151,305.187618 C908.038169,306.590377 908.896609,307.827567 909.852163,308.842032 C905.026979,307.298408 901.016332,303.923678 898.644744,299.53838 Z M907.233038,299.53838 L914.831668,299.53838 L914.831668,309.679137 C912.663666,309.245177 910.638388,307.355173 909.045229,304.289119 C908.327613,302.909212 907.714713,301.308481 907.233135,299.53838 L907.233038,299.53838 Z M916.780784,299.53838 L924.379414,299.53838 C923.897846,301.308481 923.284937,302.909212 922.567321,304.289119 C920.974162,307.355416 918.948884,309.24548 916.780882,309.679137 L916.780784,299.53838 Z M926.389441,299.53838 L932.967708,299.53838 C930.596023,303.923678 926.585327,307.298408 921.760289,308.842032 C922.715795,307.827567 923.574283,306.590377 924.303301,305.187618 C925.165542,303.529829 925.860304,301.626464 926.389441,299.53838 Z" id="Shape-Copy-66" fill="#000000" fill-rule="nonzero"></path>
                        <path d="M1324.1925,323.970605 C1312.36283,323.970605 1302.75222,333.58074 1302.75222,345.409836 C1302.75222,357.238932 1312.36283,366.849067 1324.1925,366.849067 C1336.02218,366.849067 1345.63278,357.238932 1345.63278,345.409836 C1345.63278,333.58074 1336.02218,323.970605 1324.1925,323.970605 Z M1323.21795,326.010986 L1323.21795,336.151743 L1315.61932,336.151743 C1316.10088,334.374041 1316.71379,332.767609 1317.43141,331.385802 C1319.02457,328.319504 1321.04985,326.442597 1323.21785,326.010889 L1323.21795,326.010986 Z M1325.16706,326.010986 C1327.33506,326.443045 1329.36034,328.319748 1330.9535,331.385899 C1331.67112,332.767706 1332.28402,334.374138 1332.76559,336.15184 L1325.16696,336.15184 L1325.16706,326.010986 Z M1318.22333,326.848481 C1317.27163,327.857245 1316.42079,329.090634 1315.69557,330.487693 C1314.83333,332.147381 1314.12332,334.058348 1313.59418,336.152035 L1307.03102,336.152035 C1309.39891,331.770538 1313.40366,328.393957 1318.22333,326.848383 L1318.22333,326.848481 Z M1330.16167,326.848481 C1334.98115,328.394006 1338.98581,331.770733 1341.35399,336.152132 L1334.79082,336.152132 C1334.26169,334.058445 1333.55167,332.147479 1332.68943,330.48779 C1331.96421,329.090732 1331.11338,327.857391 1330.16167,326.848578 L1330.16167,326.848481 Z M1306.11737,338.101153 L1313.16781,338.101153 C1312.78903,340.09393 1312.56442,342.219971 1312.51301,344.435472 L1304.73165,344.435472 C1304.84205,342.204768 1305.32169,340.073027 1306.11737,338.101153 Z M1315.16225,338.101153 L1323.21746,338.101153 L1323.21746,344.435472 L1314.46154,344.435472 C1314.51674,342.200968 1314.76228,340.074927 1315.162,338.101153 L1315.16225,338.101153 Z M1325.16657,338.101153 L1333.22178,338.101153 C1333.6215,340.074927 1333.86704,342.200968 1333.92225,344.435472 L1325.16633,344.435472 L1325.16657,338.101153 Z M1335.21671,338.101153 L1342.26715,338.101153 C1343.06278,340.073027 1343.54245,342.204768 1343.65287,344.435472 L1335.87151,344.435472 C1335.82012,342.219971 1335.59551,340.09393 1335.21671,338.101153 Z M1304.73155,346.384493 L1312.51291,346.384493 C1312.5643,348.599994 1312.78891,350.727935 1313.16772,352.718811 L1306.11728,352.718811 C1305.32165,350.746938 1304.84197,348.615196 1304.73155,346.384493 L1304.73155,346.384493 Z M1314.46203,346.384493 L1323.21795,346.384493 L1323.21795,352.718811 L1315.16273,352.718811 C1314.76111,350.746938 1314.51748,348.620897 1314.46227,346.384493 L1314.46203,346.384493 Z M1325.16706,346.384493 L1333.92298,346.384493 C1333.86778,348.620897 1333.62414,350.746938 1333.22252,352.718811 L1325.1673,352.718811 L1325.16706,346.384493 Z M1335.8721,346.384493 L1343.65346,346.384493 C1343.54306,348.615196 1343.06341,350.746938 1342.26773,352.718811 L1335.21729,352.718811 C1335.59607,350.727935 1335.82069,348.599994 1335.8721,346.384493 L1335.8721,346.384493 Z M1307.03102,354.667832 L1313.60929,354.667832 C1314.13843,356.755818 1314.83319,358.659135 1315.69543,360.31707 C1316.42445,361.719829 1317.28289,362.957018 1318.23844,363.971484 C1313.41326,362.427859 1309.40261,359.053129 1307.03102,354.667832 Z M1315.61932,354.667832 L1323.21795,354.667832 L1323.21795,364.808588 C1321.04994,364.374629 1319.02466,362.484625 1317.43151,359.418571 C1316.71389,358.038664 1316.10099,356.437933 1315.61941,354.667832 L1315.61932,354.667832 Z M1325.16706,354.667832 L1332.76569,354.667832 C1332.28412,356.437933 1331.67121,358.038664 1330.9536,359.418571 C1329.36044,362.484868 1327.33516,364.374931 1325.16716,364.808588 L1325.16706,354.667832 Z M1334.77572,354.667832 L1341.35399,354.667832 C1338.9823,359.053129 1334.9716,362.427859 1330.14657,363.971484 C1331.10207,362.957018 1331.96056,361.719829 1332.68958,360.31707 C1333.55182,358.659281 1334.24658,356.755916 1334.77572,354.667832 Z" id="Shape-Copy-65" fill="#000000" fill-rule="nonzero"></path>
                        <g id="Group-Copy-15" stroke-width="1" fill="none" fill-rule="evenodd" transform="translate(1029.814062, 438.993782)">
                            <path d="M15.4733023,24.7344689 L21.0066489,30.2107539 L26.726613,24.7344689 C23.6312023,21.6256875 18.5689005,21.6256875 15.4733023,24.7344689 Z" id="Shape" fill="#000000" fill-rule="nonzero"></path>
                            <path d="M7.73665114,16.5662146 L11.0665058,19.8617307 C16.5998525,14.3854457 25.6498587,14.3854457 31.2286875,19.8617307 L34.5585422,16.5662146 C27.102286,9.2337191 15.0978168,9.2337191 7.73674491,16.5662146 L7.73665114,16.5662146 Z" id="Shape" fill="#000000" fill-rule="nonzero"></path>
                            <path d="M0.0934024792,9.00169279 L3.42325713,12.2972089 C13.1765953,2.64445028 29.070959,2.64445028 38.8242972,12.2972089 L42.1541518,9.00169279 C30.5252618,-2.45994296 11.6745597,-2.45994296 0.0934962568,9.00169279 L0.0934024792,9.00169279 Z" id="Shape" fill="#000000" fill-rule="nonzero"></path>
                        </g>
                        <g id="Group-Copy-13" stroke-width="1" fill="none" fill-rule="evenodd" transform="translate(1438.200339, 275.647258)">
                            <path d="M15.4733023,24.7344689 L21.0066489,30.2107539 L26.726613,24.7344689 C23.6312023,21.6256875 18.5689005,21.6256875 15.4733023,24.7344689 Z" id="Shape" fill="#000000" fill-rule="nonzero"></path>
                        </g>
                        <path d="M1134.12705,533.886187 C1134.72262,518.657527 1115.19699,516.45371 1110.78029,527.96542 C1106.09555,526.925923 1102.19805,530.084365 1101.5916,533.955337 C1090.22553,535.247408 1091.8475,551.581788 1102.8173,551.581788 L1134.12692,551.581788 C1145.84148,551.581788 1145.8442,533.885915 1134.12692,533.885915 L1134.12705,533.886187 Z M1134.12705,548.859618 L1102.81744,548.859618 C1095.34397,548.859618 1093.44497,536.608629 1104.17873,536.608629 C1103.8384,531.674203 1108.17751,529.20699 1112.34645,531.639628 C1116.63771,518.772005 1131.40448,523.081631 1131.40448,533.205576 L1131.40448,536.608629 L1134.12705,536.608629 C1142.24169,536.608629 1142.24441,548.859618 1134.12705,548.859618 Z" id="Shape-Copy-63" fill="#000000" fill-rule="nonzero"></path>
                        <path d="M1134.12705,315.410212 C1134.72262,300.181552 1115.19699,297.977735 1110.78029,309.489445 C1106.09555,308.449948 1102.19805,311.608389 1101.5916,315.479362 C1090.22553,316.771433 1091.8475,333.105813 1102.8173,333.105813 L1134.12692,333.105813 C1145.84148,333.105813 1145.8442,315.40994 1134.12692,315.40994 L1134.12705,315.410212 Z M1134.12705,330.383643 L1102.81744,330.383643 C1095.34397,330.383643 1093.44497,318.132654 1104.17873,318.132654 C1103.8384,313.198228 1108.17751,310.731014 1112.34645,313.163653 C1116.63771,300.29603 1131.40448,304.605656 1131.40448,314.729601 L1131.40448,318.132654 L1134.12705,318.132654 C1142.24169,318.132654 1142.24441,330.383643 1134.12705,330.383643 Z" id="Shape-Copy-62" fill="#000000" fill-rule="nonzero"></path>
                        <path d="M1542.51333,370.539663 C1543.10889,355.311003 1523.58326,353.107186 1519.16657,364.618896 C1514.48183,363.5794 1510.58433,366.737841 1509.97788,370.608813 C1498.6118,371.900884 1500.23378,388.235265 1511.20358,388.235265 L1542.51319,388.235265 C1554.22775,388.235265 1554.23048,370.539391 1542.51319,370.539391 L1542.51333,370.539663 Z M1542.51333,385.513095 L1511.20371,385.513095 C1503.73025,385.513095 1501.83125,373.262105 1512.565,373.262105 C1512.22468,368.327679 1516.56378,365.860466 1520.73273,368.293104 C1525.02398,355.425482 1539.79075,359.735108 1539.79075,369.859053 L1539.79075,373.262105 L1542.51333,373.262105 C1550.62796,373.262105 1550.63069,385.513095 1542.51333,385.513095 Z" id="Shape-Copy-61" fill="#000000" fill-rule="nonzero"></path>
                        <path d="M1198.1946,401.055815 C1198.26029,400.728595 1198.15707,400.388837 1197.92091,400.152443 L1179.90387,382.116264 C1179.61766,381.829754 1179.18911,381.743641 1178.81219,381.89864 C1178.4384,382.053639 1178.19441,382.418442 1178.19441,382.823936 L1178.19441,408.331501 C1178.19441,408.666549 1178.36176,408.978118 1178.63859,409.164412 C1178.91698,409.350722 1179.26887,409.385167 1179.57856,409.256785 L1185.81245,406.67192 L1190.20101,417.275991 C1190.36053,417.662703 1190.73275,417.894431 1191.12688,417.894431 C1191.25357,417.894431 1191.38494,417.869381 1191.51006,417.817714 L1195.20887,416.284959 C1195.45442,416.183191 1195.64837,415.989053 1195.75003,415.743232 C1195.85169,415.497427 1195.85169,415.221867 1195.75003,414.976053 L1191.36148,404.37038 L1197.59537,401.785515 C1197.90504,401.657133 1198.12868,401.384711 1198.19438,401.055931 L1198.1946,401.055815 Z M1189.66934,402.903281 C1189.42379,403.005049 1189.22984,403.199186 1189.12819,403.445007 C1189.02653,403.690829 1189.02653,403.966373 1189.12819,404.212186 L1193.51674,414.816257 L1191.66811,415.583436 L1187.27956,404.979365 C1187.12003,404.592654 1186.74782,404.360925 1186.35368,404.360925 C1186.227,404.360925 1186.09563,404.385975 1185.97051,404.437643 L1180.19625,406.831524 L1180.19625,385.24302 L1195.44507,400.50804 L1189.66934,402.903281 Z" id="Shape-Copy-59" fill="#000000" fill-rule="nonzero"></path>
                        <path d="M1283.22393,712.719037 L1278.97787,712.719037 L1278.97787,683.955075 C1278.97787,683.612109 1278.70136,683.332956 1278.35837,683.332956 L1230.64388,683.332956 C1230.3009,683.332956 1230.02439,683.612116 1230.02439,683.955075 L1230.02439,712.719037 L1225.77833,712.719037 C1225.43534,712.719037 1225.15883,712.995535 1225.15883,713.338501 L1225.15883,714.003158 C1225.15883,714.346125 1225.438,714.622623 1225.77833,714.622623 L1283.22602,714.622623 C1283.56901,714.622623 1283.84552,714.346125 1283.84552,714.003158 L1283.84552,713.341156 C1283.84552,712.995535 1283.56635,712.719037 1283.22337,712.719037 L1283.22393,712.719037 Z M1254.50144,684.000676 C1254.60779,684.000676 1254.69287,684.088414 1254.69287,684.194759 C1254.69287,684.301105 1254.60779,684.388842 1254.50144,684.388842 C1254.39509,684.388842 1254.30735,684.301105 1254.30735,684.194759 C1254.31001,684.088414 1254.39509,684.000676 1254.50144,684.000676 Z M1256.79065,713.471792 L1252.20958,713.471792 C1252.04739,713.471792 1251.91446,713.338862 1251.91446,713.176686 C1251.91446,713.011849 1252.04739,712.878919 1252.20958,712.878919 L1256.79065,712.878919 C1256.95283,712.878919 1257.08577,713.009195 1257.08577,713.176686 C1257.08843,713.338862 1256.95549,713.471792 1256.79065,713.471792 Z M1277.07451,710.366507 L1231.92877,710.366507 L1231.92877,685.055963 L1277.07451,685.055963 L1277.07451,710.366507 Z" id="Shape-Copy-52" fill="#000000" fill-rule="nonzero"></path>
                        <path d="M1402.66241,634.265294 L1400.63649,636.823954 L1410.83801,644.937921 L1400.63649,653.051887 L1402.66241,655.610547 L1416.0843,644.937485 L1402.66241,634.265294 Z M1379.47182,634.265294 L1366.0521,644.938356 L1379.47182,655.613051 L1381.49773,653.054391 L1371.29622,644.938247 L1381.49773,636.824281 L1379.47182,634.265294 Z M1384.17701,658.469438 L1387.22117,659.63497 L1397.95923,631.410868 L1394.91507,630.245336 L1384.17701,658.469438 Z" id="Shape-Copy-48" fill="#000000" fill-rule="nonzero"></path>
                        <path d="M915.806226,705.112493 C903.976552,705.112493 894.365947,714.722628 894.365947,726.551724 C894.365947,738.38082 903.976552,747.990955 915.806226,747.990955 C927.6359,747.990955 937.246506,738.38082 937.246506,726.551724 C937.246506,714.722628 927.6359,705.112493 915.806226,705.112493 Z M914.831668,707.152874 L914.831668,717.293631 L907.233038,717.293631 C907.714606,715.515929 908.327516,713.909497 909.045131,712.52769 C910.63829,709.461392 912.663568,707.584485 914.831571,707.152777 L914.831668,707.152874 Z M916.780784,707.152874 C918.948786,707.584933 920.974064,709.461636 922.567223,712.527787 C923.284839,713.909594 923.897739,715.516026 924.379317,717.293728 L916.780687,717.293728 L916.780784,707.152874 Z M909.837057,707.990369 C908.885353,708.999133 908.034515,710.232522 907.309297,711.629581 C906.447057,713.28927 905.737043,715.200236 905.207906,717.293923 L898.644744,717.293923 C901.012628,712.912426 905.01738,709.535845 909.837057,707.990271 L909.837057,707.990369 Z M921.775395,707.990369 C926.594877,709.535894 930.599532,712.912621 932.967708,717.29402 L926.404546,717.29402 C925.87541,715.200333 925.165395,713.289367 924.303155,711.629678 C923.577938,710.23262 922.7271,708.999279 921.775395,707.990466 L921.775395,707.990369 Z M897.731096,719.243041 L904.781537,719.243041 C904.402755,721.235818 904.178139,723.361859 904.126731,725.57736 L896.345372,725.57736 C896.45577,723.346657 896.935418,721.214915 897.731096,719.243041 Z M906.77597,719.243041 L914.831181,719.243041 L914.831181,725.57736 L906.075263,725.57736 C906.130462,723.342856 906.376007,721.216815 906.775727,719.243041 L906.77597,719.243041 Z M916.780297,719.243041 L924.835508,719.243041 C925.235227,721.216815 925.480762,723.342856 925.535971,725.57736 L916.780053,725.57736 L916.780297,719.243041 Z M926.830428,719.243041 L933.880869,719.243041 C934.676498,721.214915 935.156176,723.346657 935.266593,725.57736 L927.485234,725.57736 C927.43384,723.361859 927.209234,721.235818 926.830428,719.243041 Z M896.345274,727.526381 L904.126634,727.526381 C904.178027,729.741882 904.402634,731.869823 904.78144,733.860699 L897.730999,733.860699 C896.935369,731.888826 896.455692,729.757084 896.345274,727.526381 L896.345274,727.526381 Z M906.07575,727.526381 L914.831668,727.526381 L914.831668,733.860699 L906.776458,733.860699 C906.374832,731.888826 906.131203,729.762785 906.075994,727.526381 L906.07575,727.526381 Z M916.780784,727.526381 L925.536702,727.526381 C925.481503,729.762785 925.237864,731.888826 924.836238,733.860699 L916.781028,733.860699 L916.780784,727.526381 Z M927.485818,727.526381 L935.267178,727.526381 C935.15678,729.757084 934.677132,731.888826 933.881454,733.860699 L926.831013,733.860699 C927.209794,731.869823 927.434411,729.741882 927.485818,727.526381 L927.485818,727.526381 Z M898.644744,735.80972 L905.223012,735.80972 C905.752148,737.897706 906.446911,739.801023 907.309151,741.458958 C908.038169,742.861717 908.896609,744.098907 909.852163,745.113372 C905.026979,743.569747 901.016332,740.195017 898.644744,735.80972 Z M907.233038,735.80972 L914.831668,735.80972 L914.831668,745.950477 C912.663666,745.516517 910.638388,743.626513 909.045229,740.560459 C908.327613,739.180552 907.714713,737.579821 907.233135,735.80972 L907.233038,735.80972 Z M916.780784,735.80972 L924.379414,735.80972 C923.897846,737.579821 923.284937,739.180552 922.567321,740.560459 C920.974162,743.626756 918.948884,745.516819 916.780882,745.950477 L916.780784,735.80972 Z M926.389441,735.80972 L932.967708,735.80972 C930.596023,740.195017 926.585327,743.569747 921.760289,745.113372 C922.715795,744.098907 923.574283,742.861717 924.303301,741.458958 C925.165542,739.801169 925.860304,737.897804 926.389441,735.80972 Z" id="Shape-Copy-46" fill="#000000" fill-rule="nonzero"></path>
                        <path d="M1324.1925,541.765969 C1312.36283,541.765969 1302.75222,551.376105 1302.75222,563.205201 C1302.75222,575.034296 1312.36283,584.644432 1324.1925,584.644432 C1336.02218,584.644432 1345.63278,575.034296 1345.63278,563.205201 C1345.63278,551.376105 1336.02218,541.765969 1324.1925,541.765969 Z M1323.21795,543.806351 L1323.21795,553.947107 L1315.61932,553.947107 C1316.10088,552.169405 1316.71379,550.562973 1317.43141,549.181166 C1319.02457,546.114869 1321.04985,544.237962 1323.21785,543.806253 L1323.21795,543.806351 Z M1325.16706,543.806351 C1327.33506,544.23841 1329.36034,546.115112 1330.9535,549.181264 C1331.67112,550.563071 1332.28402,552.169503 1332.76559,553.947205 L1325.16696,553.947205 L1325.16706,543.806351 Z M1318.22333,544.643845 C1317.27163,545.65261 1316.42079,546.885999 1315.69557,548.283057 C1314.83333,549.942746 1314.12332,551.853712 1313.59418,553.9474 L1307.03102,553.9474 C1309.39891,549.565903 1313.40366,546.189321 1318.22333,544.643748 L1318.22333,544.643845 Z M1330.16167,544.643845 C1334.98115,546.18937 1338.98581,549.566098 1341.35399,553.947497 L1334.79082,553.947497 C1334.26169,551.85381 1333.55167,549.942844 1332.68943,548.283155 C1331.96421,546.886096 1331.11338,545.652756 1330.16167,544.643943 L1330.16167,544.643845 Z M1306.11737,555.896518 L1313.16781,555.896518 C1312.78903,557.889295 1312.56442,560.015335 1312.51301,562.230836 L1304.73165,562.230836 C1304.84205,560.000133 1305.32169,557.868391 1306.11737,555.896518 Z M1315.16225,555.896518 L1323.21746,555.896518 L1323.21746,562.230836 L1314.46154,562.230836 C1314.51674,559.996332 1314.76228,557.870292 1315.162,555.896518 L1315.16225,555.896518 Z M1325.16657,555.896518 L1333.22178,555.896518 C1333.6215,557.870292 1333.86704,559.996332 1333.92225,562.230836 L1325.16633,562.230836 L1325.16657,555.896518 Z M1335.21671,555.896518 L1342.26715,555.896518 C1343.06278,557.868391 1343.54245,560.000133 1343.65287,562.230836 L1335.87151,562.230836 C1335.82012,560.015335 1335.59551,557.889295 1335.21671,555.896518 Z M1304.73155,564.179857 L1312.51291,564.179857 C1312.5643,566.395358 1312.78891,568.523299 1313.16772,570.514176 L1306.11728,570.514176 C1305.32165,568.542302 1304.84197,566.410561 1304.73155,564.179857 L1304.73155,564.179857 Z M1314.46203,564.179857 L1323.21795,564.179857 L1323.21795,570.514176 L1315.16273,570.514176 C1314.76111,568.542302 1314.51748,566.416262 1314.46227,564.179857 L1314.46203,564.179857 Z M1325.16706,564.179857 L1333.92298,564.179857 C1333.86778,566.416262 1333.62414,568.542302 1333.22252,570.514176 L1325.1673,570.514176 L1325.16706,564.179857 Z M1335.8721,564.179857 L1343.65346,564.179857 C1343.54306,566.410561 1343.06341,568.542302 1342.26773,570.514176 L1335.21729,570.514176 C1335.59607,568.523299 1335.82069,566.395358 1335.8721,564.179857 L1335.8721,564.179857 Z M1307.03102,572.463197 L1313.60929,572.463197 C1314.13843,574.551183 1314.83319,576.454499 1315.69543,578.112434 C1316.42445,579.515193 1317.28289,580.752383 1318.23844,581.766849 C1313.41326,580.223224 1309.40261,576.848494 1307.03102,572.463197 Z M1315.61932,572.463197 L1323.21795,572.463197 L1323.21795,582.603953 C1321.04994,582.169994 1319.02466,580.279989 1317.43151,577.213935 C1316.71389,575.834029 1316.10099,574.233298 1315.61941,572.463197 L1315.61932,572.463197 Z M1325.16706,572.463197 L1332.76569,572.463197 C1332.28412,574.233298 1331.67121,575.834029 1330.9536,577.213935 C1329.36044,580.280233 1327.33516,582.170296 1325.16716,582.603953 L1325.16706,572.463197 Z M1334.77572,572.463197 L1341.35399,572.463197 C1338.9823,576.848494 1334.9716,580.223224 1330.14657,581.766849 C1331.10207,580.752383 1331.96056,579.515193 1332.68958,578.112434 C1333.55182,576.454646 1334.24658,574.55128 1334.77572,572.463197 Z" id="Shape-Copy-44" fill="#000000" fill-rule="nonzero"></path>
                        <g id="Group-Copy-10" stroke-width="1" fill="none" fill-rule="evenodd" transform="translate(1029.814062, 656.789146)">
                            <path d="M15.4733023,24.7344689 L21.0066489,30.2107539 L26.726613,24.7344689 C23.6312023,21.6256875 18.5689005,21.6256875 15.4733023,24.7344689 Z" id="Shape" fill="#000000" fill-rule="nonzero"></path>
                            <path d="M7.73665114,16.5662146 L11.0665058,19.8617307 C16.5998525,14.3854457 25.6498587,14.3854457 31.2286875,19.8617307 L34.5585422,16.5662146 C27.102286,9.2337191 15.0978168,9.2337191 7.73674491,16.5662146 L7.73665114,16.5662146 Z" id="Shape" fill="#000000" fill-rule="nonzero"></path>
                            <path d="M0.0934024792,9.00169279 L3.42325713,12.2972089 C13.1765953,2.64445028 29.070959,2.64445028 38.8242972,12.2972089 L42.1541518,9.00169279 C30.5252618,-2.45994296 11.6745597,-2.45994296 0.0934962568,9.00169279 L0.0934024792,9.00169279 Z" id="Shape" fill="#000000" fill-rule="nonzero"></path>
                        </g>
                        <g id="Group-Copy-9" stroke-width="1" fill="none" fill-rule="evenodd" transform="translate(1438.200339, 711.918598)">
                            <path d="M15.4733023,24.7344689 L21.0066489,30.2107539 L26.726613,24.7344689 C23.6312023,21.6256875 18.5689005,21.6256875 15.4733023,24.7344689 Z" id="Shape" fill="#000000" fill-rule="nonzero"></path>
                            <path d="M7.73665114,16.5662146 L11.0665058,19.8617307 C16.5998525,14.3854457 25.6498587,14.3854457 31.2286875,19.8617307 L34.5585422,16.5662146 C27.102286,9.2337191 15.0978168,9.2337191 7.73674491,16.5662146 L7.73665114,16.5662146 Z" id="Shape" fill="#000000" fill-rule="nonzero"></path>
                            <path d="M0.0934024792,9.00169279 L3.42325713,12.2972089 C13.1765953,2.64445028 29.070959,2.64445028 38.8242972,12.2972089 L42.1541518,9.00169279 C30.5252618,-2.45994296 11.6745597,-2.45994296 0.0934962568,9.00169279 L0.0934024792,9.00169279 Z" id="Shape" fill="#000000" fill-rule="nonzero"></path>
                        </g>
                        <g id="Group-Copy-8" stroke-width="1" fill="none" fill-rule="evenodd" transform="translate(1438.200339, 493.442623)">
                            <path d="M15.4733023,24.7344689 L21.0066489,30.2107539 L26.726613,24.7344689 C23.6312023,21.6256875 18.5689005,21.6256875 15.4733023,24.7344689 Z" id="Shape" fill="#000000" fill-rule="nonzero"></path>
                            <path d="M7.73665114,16.5662146 L11.0665058,19.8617307 C16.5998525,14.3854457 25.6498587,14.3854457 31.2286875,19.8617307 L34.5585422,16.5662146 C27.102286,9.2337191 15.0978168,9.2337191 7.73674491,16.5662146 L7.73665114,16.5662146 Z" id="Shape" fill="#000000" fill-rule="nonzero"></path>
                            <path d="M0.0934024792,9.00169279 L3.42325713,12.2972089 C13.1765953,2.64445028 29.070959,2.64445028 38.8242972,12.2972089 L42.1541518,9.00169279 C30.5252618,-2.45994296 11.6745597,-2.45994296 0.0934962568,9.00169279 L0.0934024792,9.00169279 Z" id="Shape" fill="#000000" fill-rule="nonzero"></path>
                        </g>
                        <path d="M1134.12705,751.681552 C1134.72262,736.452891 1115.19699,734.249074 1110.78029,745.760785 C1106.09555,744.721288 1102.19805,747.879729 1101.5916,751.750702 C1090.22553,753.042773 1091.8475,769.377153 1102.8173,769.377153 L1134.12692,769.377153 C1145.84148,769.377153 1145.8442,751.681279 1134.12692,751.681279 L1134.12705,751.681552 Z M1134.12705,766.654983 L1102.81744,766.654983 C1095.34397,766.654983 1093.44497,754.403994 1104.17873,754.403994 C1103.8384,749.469567 1108.17751,747.002354 1112.34645,749.434992 C1116.63771,736.56737 1131.40448,740.876996 1131.40448,751.000941 L1131.40448,754.403994 L1134.12705,754.403994 C1142.24169,754.403994 1142.24441,766.654983 1134.12705,766.654983 Z" id="Shape-Copy-42" fill="#000000" fill-rule="nonzero"></path>
                        <path d="M1542.51333,588.335028 C1543.10889,573.106368 1523.58326,570.902551 1519.16657,582.414261 C1514.48183,581.374765 1510.58433,584.533206 1509.97788,588.404178 C1498.6118,589.696249 1500.23378,606.030629 1511.20358,606.030629 L1542.51319,606.030629 C1554.22775,606.030629 1554.23048,588.334756 1542.51319,588.334756 L1542.51333,588.335028 Z M1542.51333,603.308459 L1511.20371,603.308459 C1503.73025,603.308459 1501.83125,591.05747 1512.565,591.05747 C1512.22468,586.123044 1516.56378,583.655831 1520.73273,586.088469 C1525.02398,573.220846 1539.79075,577.530472 1539.79075,587.654418 L1539.79075,591.05747 L1542.51333,591.05747 C1550.62796,591.05747 1550.63069,603.308459 1542.51333,603.308459 Z" id="Shape-Copy-40" fill="#000000" fill-rule="nonzero"></path>
                        <path d="M1198.1946,618.85118 C1198.26029,618.523959 1198.15707,618.184202 1197.92091,617.947808 L1179.90387,599.911629 C1179.61766,599.625118 1179.18911,599.539005 1178.81219,599.694004 C1178.4384,599.849003 1178.19441,600.213807 1178.19441,600.6193 L1178.19441,626.126866 C1178.19441,626.461914 1178.36176,626.773483 1178.63859,626.959777 C1178.91698,627.146086 1179.26887,627.180531 1179.57856,627.05215 L1185.81245,624.467285 L1190.20101,635.071356 C1190.36053,635.458067 1190.73275,635.689796 1191.12688,635.689796 C1191.25357,635.689796 1191.38494,635.664746 1191.51006,635.613078 L1195.20887,634.080324 C1195.45442,633.978555 1195.64837,633.784418 1195.75003,633.538597 C1195.85169,633.292792 1195.85169,633.017231 1195.75003,632.771418 L1191.36148,622.165744 L1197.59537,619.580879 C1197.90504,619.452498 1198.12868,619.180075 1198.19438,618.851296 L1198.1946,618.85118 Z M1189.66934,620.698645 C1189.42379,620.800414 1189.22984,620.994551 1189.12819,621.240372 C1189.02653,621.486193 1189.02653,621.761738 1189.12819,622.007551 L1193.51674,632.611622 L1191.66811,633.3788 L1187.27956,622.77473 C1187.12003,622.388018 1186.74782,622.156289 1186.35368,622.156289 C1186.227,622.156289 1186.09563,622.18134 1185.97051,622.233007 L1180.19625,624.626889 L1180.19625,603.038385 L1195.44507,618.303405 L1189.66934,620.698645 Z" id="Shape-Copy-38" fill="#000000" fill-rule="nonzero"></path>
                    </g>
                </g>
            </g>
        </g>
    </g>
</svg>