<?xml version="1.0" encoding="UTF-8" standalone="no"?>
<svg width="300px" height="400px" viewBox="0 0 300 400" version="1.1" xmlns="http://www.w3.org/2000/svg" xmlns:xlink="http://www.w3.org/1999/xlink">
    <!-- Generator: Sketch 43.1 (39012) - http://www.bohemiancoding.com/sketch -->
    <title>Step 1 image</title>
    <desc>Created with Sketch.</desc>
    <defs>
        <linearGradient x1="50%" y1="0%" x2="50%" y2="100%" id="linearGradient-1">
            <stop stop-color="#00D2FF" offset="0%"></stop>
            <stop stop-color="#3A7BD5" offset="100%"></stop>
        </linearGradient>
        <rect id="path-2" x="0" y="0" width="300" height="400" rx="10"></rect>
        <linearGradient x1="50%" y1="-2.48949813e-15%" x2="50%" y2="100%" id="linearGradient-4">
            <stop stop-color="#000000" stop-opacity="0" offset="0%"></stop>
            <stop stop-color="#000000" stop-opacity="0.6" offset="100%"></stop>
        </linearGradient>
        <rect id="path-5" x="0" y="0" width="300" height="400" rx="10"></rect>
    </defs>
    <g id="Whole-Site" stroke="none" stroke-width="1" fill="none" fill-rule="evenodd">
        <g id="Women-in-IT-1" transform="translate(-891.000000, -1417.000000)">
            <g id="Group-4" transform="translate(251.000000, 1354.000000)">
                <g id="How-it-works-Copy">
                    <g id="Step-3" transform="translate(640.000000, 63.000000)">
                        <g id="Step-1-image">
                            <mask id="mask-3" fill="white">
                                <use xlink:href="#path-2"></use>
                            </mask>
                            <use id="Mask" fill="url(#linearGradient-1)" xlink:href="#path-2"></use>
                            <mask id="mask-6" fill="white">
                                <use xlink:href="#path-5"></use>
                            </mask>
                            <use id="Mask-Copy-2" fill="url(#linearGradient-4)" opacity="0.6" xlink:href="#path-5"></use>
                            <g id="Group-2" opacity="0.203999534" style="mix-blend-mode: overlay;" mask="url(#mask-6)">
                                <g transform="translate(-831.000000, -452.000000)">
                                    <path d="M874.83765,658.270196 L870.59159,658.270196 L870.59159,629.506234 C870.59159,629.163268 870.315078,628.884115 869.972095,628.884115 L822.257604,628.884115 C821.91462,628.884115 821.638109,629.163275 821.638109,629.506234 L821.638109,658.270196 L817.392049,658.270196 C817.049066,658.270196 816.772554,658.546694 816.772554,658.88966 L816.772554,659.554317 C816.772554,659.897284 817.051727,660.173782 817.392049,660.173782 L874.839746,660.173782 C875.18273,660.173782 875.459241,659.897284 875.459241,659.554317 L875.459241,658.892315 C875.459241,658.546694 875.180068,658.270196 874.837092,658.270196 L874.83765,658.270196 Z M846.115162,629.551835 C846.221513,629.551835 846.306594,629.639573 846.306594,629.745918 C846.306594,629.852263 846.221513,629.940001 846.115162,629.940001 C846.008812,629.940001 845.92107,629.852263 845.92107,629.745918 C845.923729,629.639573 846.008812,629.551835 846.115162,629.551835 Z M848.404372,659.022951 L843.823299,659.022951 C843.661115,659.022951 843.528178,658.890021 843.528178,658.727845 C843.528178,658.563008 843.661115,658.430078 843.823299,658.430078 L848.404372,658.430078 C848.566556,658.430078 848.699492,658.560354 848.699492,658.727845 C848.702151,658.890021 848.56921,659.022951 848.404372,659.022951 Z M868.688237,655.917665 L823.542496,655.917665 L823.542496,630.607122 L868.688237,630.607122 L868.688237,655.917665 Z" id="Shape-Copy-75" fill="#000000" fill-rule="nonzero"></path>
                                    <path d="M994.276129,579.816453 L992.250218,582.375113 L1002.45173,590.489079 L992.250218,598.603046 L994.276129,601.161706 L1007.69803,590.488644 L994.276129,579.816453 Z M971.085545,579.816453 L957.66582,590.489515 L971.085545,601.16421 L973.111456,598.60555 L962.909945,590.489406 L973.111456,582.37544 L971.085545,579.816453 Z M975.79073,604.020596 L978.834892,605.186128 L989.572952,576.962027 L986.528791,575.796495 L975.79073,604.020596 Z" id="Shape-Copy-71" fill="#000000" fill-rule="nonzero"></path>
                                    <path d="M915.806226,487.317128 C903.976552,487.317128 894.365947,496.927264 894.365947,508.75636 C894.365947,520.585455 903.976552,530.195591 915.806226,530.195591 C927.6359,530.195591 937.246506,520.585455 937.246506,508.75636 C937.246506,496.927264 927.6359,487.317128 915.806226,487.317128 Z M914.831668,489.35751 L914.831668,499.498266 L907.233038,499.498266 C907.714606,497.720564 908.327516,496.114132 909.045131,494.732325 C910.63829,491.666028 912.663568,489.78912 914.831571,489.357412 L914.831668,489.35751 Z M916.780784,489.35751 C918.948786,489.789569 920.974064,491.666271 922.567223,494.732422 C923.284839,496.11423 923.897739,497.720661 924.379317,499.498364 L916.780687,499.498364 L916.780784,489.35751 Z M909.837057,490.195004 C908.885353,491.203769 908.034515,492.437158 907.309297,493.834216 C906.447057,495.493905 905.737043,497.404871 905.207906,499.498558 L898.644744,499.498558 C901.012628,495.117062 905.01738,491.74048 909.837057,490.194907 L909.837057,490.195004 Z M921.775395,490.195004 C926.594877,491.740529 930.599532,495.117257 932.967708,499.498656 L926.404546,499.498656 C925.87541,497.404969 925.165395,495.494002 924.303155,493.834314 C923.577938,492.437255 922.7271,491.203915 921.775395,490.195101 L921.775395,490.195004 Z M897.731096,501.447677 L904.781537,501.447677 C904.402755,503.440453 904.178139,505.566494 904.126731,507.781995 L896.345372,507.781995 C896.45577,505.551292 896.935418,503.41955 897.731096,501.447677 Z M906.77597,501.447677 L914.831181,501.447677 L914.831181,507.781995 L906.075263,507.781995 C906.130462,505.547491 906.376007,503.42145 906.775727,501.447677 L906.77597,501.447677 Z M916.780297,501.447677 L924.835508,501.447677 C925.235227,503.42145 925.480762,505.547491 925.535971,507.781995 L916.780053,507.781995 L916.780297,501.447677 Z M926.830428,501.447677 L933.880869,501.447677 C934.676498,503.41955 935.156176,505.551292 935.266593,507.781995 L927.485234,507.781995 C927.43384,505.566494 927.209234,503.440453 926.830428,501.447677 Z M896.345274,509.731016 L904.126634,509.731016 C904.178027,511.946517 904.402634,514.074458 904.78144,516.065335 L897.730999,516.065335 C896.935369,514.093461 896.455692,511.961719 896.345274,509.731016 L896.345274,509.731016 Z M906.07575,509.731016 L914.831668,509.731016 L914.831668,516.065335 L906.776458,516.065335 C906.374832,514.093461 906.131203,511.96742 906.075994,509.731016 L906.07575,509.731016 Z M916.780784,509.731016 L925.536702,509.731016 C925.481503,511.96742 925.237864,514.093461 924.836238,516.065335 L916.781028,516.065335 L916.780784,509.731016 Z M927.485818,509.731016 L935.267178,509.731016 C935.15678,511.961719 934.677132,514.093461 933.881454,516.065335 L926.831013,516.065335 C927.209794,514.074458 927.434411,511.946517 927.485818,509.731016 L927.485818,509.731016 Z M898.644744,518.014356 L905.223012,518.014356 C905.752148,520.102342 906.446911,522.005658 907.309151,523.663593 C908.038169,525.066352 908.896609,526.303542 909.852163,527.318007 C905.026979,525.774383 901.016332,522.399653 898.644744,518.014356 Z M907.233038,518.014356 L914.831668,518.014356 L914.831668,528.155112 C912.663666,527.721153 910.638388,525.831148 909.045229,522.765094 C908.327613,521.385187 907.714713,519.784456 907.233135,518.014356 L907.233038,518.014356 Z M916.780784,518.014356 L924.379414,518.014356 C923.897846,519.784456 923.284937,521.385187 922.567321,522.765094 C920.974162,525.831392 918.948884,527.721455 916.780882,528.155112 L916.780784,518.014356 Z M926.389441,518.014356 L932.967708,518.014356 C930.596023,522.399653 926.585327,525.774383 921.760289,527.318007 C922.715795,526.303542 923.574283,525.066352 924.303301,523.663593 C925.165542,522.005804 925.860304,520.102439 926.389441,518.014356 Z" id="Shape-Copy-67" fill="#000000" fill-rule="nonzero"></path>
                                    <g id="Group-Copy-15" stroke-width="1" fill="none" fill-rule="evenodd" transform="translate(1029.814062, 438.993782)">
                                        <path d="M15.4733023,24.7344689 L21.0066489,30.2107539 L26.726613,24.7344689 C23.6312023,21.6256875 18.5689005,21.6256875 15.4733023,24.7344689 Z" id="Shape" fill="#000000" fill-rule="nonzero"></path>
                                        <path d="M7.73665114,16.5662146 L11.0665058,19.8617307 C16.5998525,14.3854457 25.6498587,14.3854457 31.2286875,19.8617307 L34.5585422,16.5662146 C27.102286,9.2337191 15.0978168,9.2337191 7.73674491,16.5662146 L7.73665114,16.5662146 Z" id="Shape" fill="#000000" fill-rule="nonzero"></path>
                                    </g>
                                    <path d="M1134.12705,533.886187 C1134.72262,518.657527 1115.19699,516.45371 1110.78029,527.96542 C1106.09555,526.925923 1102.19805,530.084365 1101.5916,533.955337 C1090.22553,535.247408 1091.8475,551.581788 1102.8173,551.581788 L1134.12692,551.581788 C1145.84148,551.581788 1145.8442,533.885915 1134.12692,533.885915 L1134.12705,533.886187 Z M1134.12705,548.859618 L1102.81744,548.859618 C1095.34397,548.859618 1093.44497,536.608629 1104.17873,536.608629 C1103.8384,531.674203 1108.17751,529.20699 1112.34645,531.639628 C1116.63771,518.772005 1131.40448,523.081631 1131.40448,533.205576 L1131.40448,536.608629 L1134.12705,536.608629 C1142.24169,536.608629 1142.24441,548.859618 1134.12705,548.859618 Z" id="Shape-Copy-63" fill="#000000" fill-rule="nonzero"></path>
                                    <path d="M874.83765,876.06556 L870.59159,876.06556 L870.59159,847.301599 C870.59159,846.958632 870.315078,846.67948 869.972095,846.67948 L822.257604,846.67948 C821.91462,846.67948 821.638109,846.958639 821.638109,847.301599 L821.638109,876.06556 L817.392049,876.06556 C817.049066,876.06556 816.772554,876.342058 816.772554,876.685025 L816.772554,877.349682 C816.772554,877.692648 817.051727,877.969146 817.392049,877.969146 L874.839746,877.969146 C875.18273,877.969146 875.459241,877.692648 875.459241,877.349682 L875.459241,876.687679 C875.459241,876.342058 875.180068,876.06556 874.837092,876.06556 L874.83765,876.06556 Z M846.115162,847.3472 C846.221513,847.3472 846.306594,847.434937 846.306594,847.541283 C846.306594,847.647628 846.221513,847.735365 846.115162,847.735365 C846.008812,847.735365 845.92107,847.647628 845.92107,847.541283 C845.923729,847.434937 846.008812,847.3472 846.115162,847.3472 Z M848.404372,876.818316 L843.823299,876.818316 C843.661115,876.818316 843.528178,876.685386 843.528178,876.52321 C843.528178,876.358373 843.661115,876.225443 843.823299,876.225443 L848.404372,876.225443 C848.566556,876.225443 848.699492,876.355718 848.699492,876.52321 C848.702151,876.685386 848.56921,876.818316 848.404372,876.818316 Z M868.688237,873.71303 L823.542496,873.71303 L823.542496,848.402486 L868.688237,848.402486 L868.688237,873.71303 Z" id="Shape-Copy-54" fill="#000000" fill-rule="nonzero"></path>
                                    <path d="M994.276129,797.611818 L992.250218,800.170478 L1002.45173,808.284444 L992.250218,816.39841 L994.276129,818.95707 L1007.69803,808.284008 L994.276129,797.611818 Z M971.085545,797.611818 L957.66582,808.28488 L971.085545,818.959575 L973.111456,816.400915 L962.909945,808.284771 L973.111456,800.170804 L971.085545,797.611818 Z M975.79073,821.815961 L978.834892,822.981493 L989.572952,794.757392 L986.528791,793.59186 L975.79073,821.815961 Z" id="Shape-Copy-50" fill="#000000" fill-rule="nonzero"></path>
                                    <path d="M915.806226,705.112493 C903.976552,705.112493 894.365947,714.722628 894.365947,726.551724 C894.365947,738.38082 903.976552,747.990955 915.806226,747.990955 C927.6359,747.990955 937.246506,738.38082 937.246506,726.551724 C937.246506,714.722628 927.6359,705.112493 915.806226,705.112493 Z M914.831668,707.152874 L914.831668,717.293631 L907.233038,717.293631 C907.714606,715.515929 908.327516,713.909497 909.045131,712.52769 C910.63829,709.461392 912.663568,707.584485 914.831571,707.152777 L914.831668,707.152874 Z M916.780784,707.152874 C918.948786,707.584933 920.974064,709.461636 922.567223,712.527787 C923.284839,713.909594 923.897739,715.516026 924.379317,717.293728 L916.780687,717.293728 L916.780784,707.152874 Z M909.837057,707.990369 C908.885353,708.999133 908.034515,710.232522 907.309297,711.629581 C906.447057,713.28927 905.737043,715.200236 905.207906,717.293923 L898.644744,717.293923 C901.012628,712.912426 905.01738,709.535845 909.837057,707.990271 L909.837057,707.990369 Z M921.775395,707.990369 C926.594877,709.535894 930.599532,712.912621 932.967708,717.29402 L926.404546,717.29402 C925.87541,715.200333 925.165395,713.289367 924.303155,711.629678 C923.577938,710.23262 922.7271,708.999279 921.775395,707.990466 L921.775395,707.990369 Z M897.731096,719.243041 L904.781537,719.243041 C904.402755,721.235818 904.178139,723.361859 904.126731,725.57736 L896.345372,725.57736 C896.45577,723.346657 896.935418,721.214915 897.731096,719.243041 Z M906.77597,719.243041 L914.831181,719.243041 L914.831181,725.57736 L906.075263,725.57736 C906.130462,723.342856 906.376007,721.216815 906.775727,719.243041 L906.77597,719.243041 Z M916.780297,719.243041 L924.835508,719.243041 C925.235227,721.216815 925.480762,723.342856 925.535971,725.57736 L916.780053,725.57736 L916.780297,719.243041 Z M926.830428,719.243041 L933.880869,719.243041 C934.676498,721.214915 935.156176,723.346657 935.266593,725.57736 L927.485234,725.57736 C927.43384,723.361859 927.209234,721.235818 926.830428,719.243041 Z M896.345274,727.526381 L904.126634,727.526381 C904.178027,729.741882 904.402634,731.869823 904.78144,733.860699 L897.730999,733.860699 C896.935369,731.888826 896.455692,729.757084 896.345274,727.526381 L896.345274,727.526381 Z M906.07575,727.526381 L914.831668,727.526381 L914.831668,733.860699 L906.776458,733.860699 C906.374832,731.888826 906.131203,729.762785 906.075994,727.526381 L906.07575,727.526381 Z M916.780784,727.526381 L925.536702,727.526381 C925.481503,729.762785 925.237864,731.888826 924.836238,733.860699 L916.781028,733.860699 L916.780784,727.526381 Z M927.485818,727.526381 L935.267178,727.526381 C935.15678,729.757084 934.677132,731.888826 933.881454,733.860699 L926.831013,733.860699 C927.209794,731.869823 927.434411,729.741882 927.485818,727.526381 L927.485818,727.526381 Z M898.644744,735.80972 L905.223012,735.80972 C905.752148,737.897706 906.446911,739.801023 907.309151,741.458958 C908.038169,742.861717 908.896609,744.098907 909.852163,745.113372 C905.026979,743.569747 901.016332,740.195017 898.644744,735.80972 Z M907.233038,735.80972 L914.831668,735.80972 L914.831668,745.950477 C912.663666,745.516517 910.638388,743.626513 909.045229,740.560459 C908.327613,739.180552 907.714713,737.579821 907.233135,735.80972 L907.233038,735.80972 Z M916.780784,735.80972 L924.379414,735.80972 C923.897846,737.579821 923.284937,739.180552 922.567321,740.560459 C920.974162,743.626756 918.948884,745.516819 916.780882,745.950477 L916.780784,735.80972 Z M926.389441,735.80972 L932.967708,735.80972 C930.596023,740.195017 926.585327,743.569747 921.760289,745.113372 C922.715795,744.098907 923.574283,742.861717 924.303301,741.458958 C925.165542,739.801169 925.860304,737.897804 926.389441,735.80972 Z" id="Shape-Copy-46" fill="#000000" fill-rule="nonzero"></path>
                                    <g id="Group-Copy-10" stroke-width="1" fill="none" fill-rule="evenodd" transform="translate(1029.814062, 656.789146)">
                                        <path d="M15.4733023,24.7344689 L21.0066489,30.2107539 L26.726613,24.7344689 C23.6312023,21.6256875 18.5689005,21.6256875 15.4733023,24.7344689 Z" id="Shape" fill="#000000" fill-rule="nonzero"></path>
                                        <path d="M7.73665114,16.5662146 L11.0665058,19.8617307 C16.5998525,14.3854457 25.6498587,14.3854457 31.2286875,19.8617307 L34.5585422,16.5662146 C27.102286,9.2337191 15.0978168,9.2337191 7.73674491,16.5662146 L7.73665114,16.5662146 Z" id="Shape" fill="#000000" fill-rule="nonzero"></path>
                                        <path d="M0.0934024792,9.00169279 L3.42325713,12.2972089 C13.1765953,2.64445028 29.070959,2.64445028 38.8242972,12.2972089 L42.1541518,9.00169279 C30.5252618,-2.45994296 11.6745597,-2.45994296 0.0934962568,9.00169279 L0.0934024792,9.00169279 Z" id="Shape" fill="#000000" fill-rule="nonzero"></path>
                                    </g>
                                    <path d="M1134.12705,751.681552 C1134.72262,736.452891 1115.19699,734.249074 1110.78029,745.760785 C1106.09555,744.721288 1102.19805,747.879729 1101.5916,751.750702 C1090.22553,753.042773 1091.8475,769.377153 1102.8173,769.377153 L1134.12692,769.377153 C1145.84148,769.377153 1145.8442,751.681279 1134.12692,751.681279 L1134.12705,751.681552 Z M1134.12705,766.654983 L1102.81744,766.654983 C1095.34397,766.654983 1093.44497,754.403994 1104.17873,754.403994 C1103.8384,749.469567 1108.17751,747.002354 1112.34645,749.434992 C1116.63771,736.56737 1131.40448,740.876996 1131.40448,751.000941 L1131.40448,754.403994 L1134.12705,754.403994 C1142.24169,754.403994 1142.24441,766.654983 1134.12705,766.654983 Z" id="Shape-Copy-42" fill="#000000" fill-rule="nonzero"></path>
                                </g>
                            </g>
                        </g>
                    </g>
                </g>
            </g>
        </g>
    </g>
</svg>